<svg version="1.1" xmlns="http://www.w3.org/2000/svg" viewBox="0 0 979.3333740234375 782.500244140625"
     width="2938.0001220703125" height="2347.500732421875">
    <!-- svg-source:excalidraw -->

    <defs>
        <style>
            @font-face {
            font-family: "Virgil";
            src: url("https://unpkg.com/@excalidraw/excalidraw@0.13.0-4d26993/dist/excalidraw-assets/Virgil.woff2");
            }
            @font-face {
            font-family: "Cascadia";
            src: url("https://unpkg.com/@excalidraw/excalidraw@0.13.0-4d26993/dist/excalidraw-assets/Cascadia.woff2");
            }
        </style>
    </defs>
    <rect x="0" y="0" width="979.3333740234375" height="782.500244140625" fill="#ffffff"></rect>
    <g stroke-linecap="round" transform="translate(353.00006103515625 10) rotate(0 114.5 34)">
        <path d="M0 0 C0 0, 0 0, 0 0 M0 0 C0 0, 0 0, 0 0 M-0.44 24.44 C7.66 19.02, 11.58 9.5, 22.2 -1.96 M-0.13 24.72 C8.85 15.14, 15.35 5.27, 22.17 -0.19 M-0.79 49.51 C13.45 31.92, 28.26 15.73, 43.11 0.28 M-0.6 48.88 C8.92 38.93, 17.18 27.05, 41.98 0.54 M0.9 70.6 C25.62 46.92, 45.18 20.96, 64.22 1.06 M2.49 68.98 C22.57 46.89, 42 22.27, 63.63 -0.57 M23.46 69.07 C50.03 42.96, 75.07 15.13, 85.68 0.03 M23.53 69.16 C42.93 48.72, 60.41 26.46, 84.34 -0.36 M45.05 71.7 C69.01 42.54, 89.93 18.13, 106.03 1.08 M44.59 71.46 C59.94 53.86, 74.75 36.38, 107.17 -0.57 M65.03 71.61 C79.05 53.49, 94.28 37.9, 126.95 -1.37 M66.66 70.91 C87.09 45.63, 109.2 21.66, 126.14 -0.33 M87.09 71.44 C111.02 46, 128.93 19.91, 147.32 2.21 M87.12 69.87 C100.08 53.43, 114.39 36.73, 147.64 0.53 M109.32 71.97 C127.1 47.73, 144.95 28.92, 168.74 -1.49 M109.17 70.77 C123.29 53.65, 137.14 38.33, 170.25 0.69 M128.99 70.37 C143.41 51.85, 159.66 33.82, 189.57 -0.05 M128.92 69.57 C148.72 48.9, 166.26 29.94, 190.19 0.1 M149.97 71.79 C166.13 54.13, 180.4 36.72, 213.73 -1 M150.19 69.45 C174.23 42.43, 198.36 15.31, 212.39 -0.59 M172.21 70.94 C185.46 54.46, 196.87 43.45, 232.17 1.98 M172.3 69.59 C193.94 46.17, 214.72 21.31, 231.36 1.97 M195.12 71.62 C208.4 51.67, 224.03 37.76, 231.15 25.76 M192.83 70.82 C202.82 58.87, 211.8 48.99, 231.81 25.63 M215.06 68.29 C220.93 61.67, 226.53 57.99, 230.26 51.16 M215.4 70.39 C221.8 62.8, 227.97 55.69, 231.95 50.38"
              stroke="#e64980" stroke-width="2" fill="none"></path>
        <path d="M-0.15 -0.35 C89.43 0.69, 177.62 0.41, 229.24 -0.11 M0.58 -0.16 C65.07 1.77, 130 0.57, 229.4 -0.04 M230.05 -0.75 C230.45 26.85, 228.03 52.38, 228.27 69.68 M229.21 0.75 C229.41 21.03, 229.96 43.2, 229.83 68.29 M228.46 68.76 C139.69 69.78, 52.14 67.09, -1.02 68.42 M228.35 67.55 C148.97 66.12, 69.62 66.57, 0.03 68.59 M0.96 67.85 C-0.75 41.61, 1.72 19.63, -1.23 0.26 M0.77 69 C-0.82 43.94, -1.08 20.73, -0.15 0.47"
              stroke="#000000" stroke-width="4" fill="none"></path>
    </g>
    <g transform="translate(424.00006103515625 31.5) rotate(0 43.5 12.5)">
        <text x="43.5" y="18" font-family="Virgil, Segoe UI Emoji" font-size="20px" fill="#000000" text-anchor="middle"
              style="white-space: pre;" direction="ltr">download
        </text>
    </g>
    <g stroke-linecap="round" transform="translate(10 370.83343505859375) rotate(0 113 41.5)">
        <path d="M0 0 C0 0, 0 0, 0 0 M0 0 C0 0, 0 0, 0 0 M2.05 25.48 C7.59 14.15, 15.49 5.82, 22.66 0.44 M1.14 24.16 C6.99 15, 15.33 7.66, 21.62 0.58 M-0.58 48.35 C12.12 34.65, 24.78 21.42, 40.78 1.18 M0.16 49.46 C13.12 32.45, 26.66 18.45, 42.93 -0.35 M2.06 74.45 C26.89 43.02, 52.01 15.69, 64.44 1.19 M0.14 73.78 C23.91 45.03, 49.09 17.02, 64.76 -0.99 M8.16 89.97 C25.7 71.37, 40.9 52.16, 85.14 0.57 M7.55 89.91 C32.16 60.55, 57.32 31.81, 85.72 -0.69 M29.61 87.66 C52.84 59.95, 78.15 32.51, 105.09 0.33 M29 90.2 C58.48 55.21, 87.96 20.9, 105.59 0.44 M49.2 88.37 C72.86 63.11, 93.99 36.58, 127.93 -1.31 M48.68 89.17 C72.1 62.6, 94.88 34.55, 127.46 0.08 M72.74 90.32 C98.45 54.91, 128.86 23.1, 146.82 1.68 M69.97 88.97 C97.62 57.42, 125.27 26.74, 148.11 -0.66 M92.09 87.27 C114.94 61.62, 137.65 33.2, 167.96 -0.82 M92.7 88.76 C119.47 57.5, 147.02 26.34, 168.88 1.02 M112.63 88.08 C139.46 58.2, 162.95 30.91, 190.62 -0.52 M113.99 88.32 C133.86 68.03, 152.97 44.26, 190.07 -0.66 M134.64 90.29 C165.44 53.76, 198 16.99, 213.94 1.62 M133.99 88.88 C151.68 70.55, 170.2 49.31, 211.06 0.36 M156.78 87.65 C177.61 65.52, 200.53 38.09, 231.08 4.67 M156.72 88.78 C171.39 71.28, 186.05 54.43, 230.82 4.52 M177.51 87.71 C195.42 70.18, 211.41 47.48, 228.8 28.41 M177.78 88.17 C199.39 63.83, 219.75 39.57, 230.81 27.41 M198.52 87.37 C207.83 79.63, 216.8 66.85, 231.5 53.8 M199.19 88.8 C205.74 80.86, 212.78 72.04, 229.4 53.39 M217.74 90.96 C220.09 87.1, 223.43 85.71, 229.57 76.87 M218.54 89.45 C224.03 83.87, 227.26 79.53, 229.53 77.57"
              stroke="#fd7e14" stroke-width="2" fill="none"></path>
        <path d="M0.72 -0.07 C59.23 0.05, 118.28 0.29, 225.73 1.47 M0.03 0.74 C55.72 -0.1, 111.99 0.32, 226.8 -0.12 M227.55 0.09 C225.56 26.92, 225.71 57.79, 226.4 83.8 M226.14 -0.72 C226.86 29.15, 227.01 59.19, 226.87 83.71 M225.34 84.29 C152.87 82.44, 77.82 84.28, 0.82 82.81 M225.58 82.58 C174.98 82, 124.3 82.56, 0.54 82.72 M-0.97 81.3 C1.09 63.03, -1.63 41.27, 1.04 1.57 M-0.28 82.86 C-1.18 52.2, -0.78 20.74, -0.35 -0.23"
              stroke="#000000" stroke-width="4" fill="none"></path>
    </g>
    <g transform="translate(73.5 399.83343505859375) rotate(0 49.5 12.5)">
        <text x="49.5" y="18" font-family="Virgil, Segoe UI Emoji" font-size="20px" fill="#000000" text-anchor="middle"
              style="white-space: pre;" direction="ltr">dsync lock
        </text>
    </g>
    <g stroke-linecap="round" transform="translate(367.33349609375 374.1669616699219) rotate(0 113 41.5)">
        <path d="M0 0 C0 0, 0 0, 0 0 M0 0 C0 0, 0 0, 0 0 M0.41 22.35 C7.67 14.36, 14.81 9.08, 21.96 -0.86 M-0.13 23.22 C8.59 15.17, 15.68 7.15, 21.09 -0.4 M-0.12 48.67 C14.64 33.28, 26.36 18.02, 42.87 -1.09 M-0.66 48.02 C11.85 34.82, 25.44 19.38, 43.51 -1.07 M0.83 72.4 C20.93 49.58, 42.2 25.5, 65.46 -0.76 M-0.74 72.52 C12.73 57.5, 26.59 42.43, 62.9 -0.49 M8.92 90.05 C27.21 66.51, 46.81 43.89, 85.52 -1.26 M6.41 89.07 C23.29 68.97, 42.21 48.46, 85.27 -0.07 M27.84 89.36 C55.08 59.69, 81.88 27.02, 107.84 -0.42 M29.04 89.72 C58.57 53.97, 87.15 20.29, 106.15 -0.77 M50.44 88.88 C77.06 56.57, 105.43 25.12, 126.96 1.88 M49.36 89.84 C75.59 58.83, 103.06 29.16, 127.71 0.31 M68.96 89.18 C96.04 59.8, 122.56 28.19, 149.27 0.22 M70.08 88.61 C89.56 68.41, 108.68 45.77, 148.18 0.73 M91.99 89.11 C120.61 54.6, 149.16 21.53, 170.51 1.73 M92.72 89.35 C118.39 60.03, 143.19 30.25, 169.69 -0.14 M113.92 87.26 C135.83 62.52, 160.28 35.14, 189.79 -1.37 M113.42 90.18 C129.52 69.82, 146.79 49.06, 191.64 -0.35 M134.39 89.59 C165.45 54.03, 194.83 23.08, 210.41 -1.41 M133.74 89.81 C152.5 69.04, 168.21 50.39, 211.9 0.07 M155.71 91 C181.35 60.48, 206.63 32.83, 228 3.98 M156.37 88.22 C172.97 68.43, 191.58 48.95, 230.24 4.6 M178.32 90.84 C196.5 65.8, 215.39 44, 232.1 26.6 M178 88.37 C196.6 66.04, 216.61 43.65, 230.27 28.03 M198.19 90.51 C204.1 81.45, 213.33 74.9, 228.21 54.07 M199.05 88.95 C209.36 76.04, 218.65 65.42, 228.87 53.08 M217.83 89.74 C222.11 87.28, 224.83 82.34, 231.74 77.67 M219.65 88.94 C221.49 86.29, 224.42 83.52, 230.63 77.4"
              stroke="#fd7e14" stroke-width="2" fill="none"></path>
        <path d="M0.21 -0.35 C63.35 -0.03, 125.95 1.54, 225.09 1.17 M-0.07 -0.46 C64.01 -1.71, 128 -1.79, 226.33 0.45 M225.12 -1.13 C225.91 23.45, 227.04 44.35, 227.1 83.42 M226.69 -0.3 C226.95 31.42, 226.99 62.97, 226.26 82.69 M226.45 81.58 C147.09 84.87, 71.06 84.26, -1.28 81.7 M225.84 83.03 C170.25 82.64, 115 81.77, -0.4 83.41 M1.49 84.02 C-0.83 58.98, 1.44 36, 1.56 1.54 M-0.54 83.57 C0.09 50.28, -0.11 16.39, 0.33 -0.88"
              stroke="#000000" stroke-width="4" fill="none"></path>
    </g>
    <g transform="translate(373.33349609375 390.6669616699219) rotate(0 107 25.5)">
        <text x="107" y="17.5" font-family="Virgil, Segoe UI Emoji" font-size="20px" fill="#000000" text-anchor="middle"
              style="white-space: pre;" direction="ltr">namespace read write
        </text>
        <text x="107" y="43" font-family="Virgil, Segoe UI Emoji" font-size="20px" fill="#000000" text-anchor="middle"
              style="white-space: pre;" direction="ltr">lock
        </text>
    </g>
    <g stroke-linecap="round" transform="translate(740.666748046875 375.50018310546875) rotate(0 113 41.5)">
        <path d="M0 0 C0 0, 0 0, 0 0 M0 0 C0 0, 0 0, 0 0 M1.21 22.19 C9.42 15.84, 16.49 5.6, 22.53 1.69 M1.17 23.96 C7.18 17.48, 13.11 9.07, 21.56 -0.3 M0.47 49.33 C9.72 36.96, 23.41 21.35, 42.45 0.43 M-0.66 49.6 C15.63 31.73, 31.3 13.66, 42.83 0.82 M0.58 74.26 C24.27 47.3, 49.02 18.06, 61.78 -0.22 M-0.01 72.64 C25.8 44.88, 47.96 17.74, 63.36 0.39 M7.61 89.84 C31.3 61.3, 56.79 30.58, 83.53 0.89 M6.27 89.45 C34.51 59.15, 60.42 29.46, 85.59 0.42 M27.96 90.89 C43.55 71.36, 62.65 51.8, 108.03 1.19 M29.1 89.24 C55.95 56.52, 85.65 21.77, 106.84 -0.49 M49.54 87.69 C69.33 65.82, 87.59 46.88, 127.66 -1.27 M48.73 88.73 C71.59 64.14, 93.28 39.71, 127.4 1.33 M69.91 91.27 C97.26 59.67, 126.76 27.09, 146.98 -1.29 M70.22 89.58 C91.78 65.38, 112.35 43.19, 148.95 0.31 M91.33 87.56 C106.07 70.44, 124.15 55.13, 170.19 1.58 M92.83 89.75 C110.16 67.77, 130.3 44.38, 169.45 -0.12 M112.16 89.01 C131.86 67.5, 149.97 44.86, 189.18 1.56 M112.77 89.16 C129.01 68.65, 147.08 49.99, 191.45 0.19 M136.32 88.05 C164.34 58.56, 188.57 23.61, 210.35 -1.01 M134.98 88.46 C155.74 64.27, 177.97 39.39, 212.33 0.56 M156.72 88.78 C174.02 69.62, 187.98 49.34, 228.74 5.63 M155.92 88.76 C176.39 67.18, 196.02 44.02, 230.68 4 M176.7 88.4 C187.82 74.6, 203.68 58.35, 231.61 29.32 M177.36 88.27 C188.73 75.47, 199.84 62.69, 229.31 27.95 M197.46 88.89 C207.04 81.71, 210.77 73.91, 230.49 54.45 M199.15 88.12 C206.74 79.14, 215.32 68.35, 229.64 51.99 M218.86 91.01 C222.74 84.82, 229.15 80.74, 229.53 76.01 M218.44 89.72 C221.42 86.85, 225.67 83.05, 229.33 75.99 M-0.34 82.7 C-0.34 82.7, -0.34 82.7, -0.34 82.7 M-0.34 82.7 C-0.34 82.7, -0.34 82.7, -0.34 82.7 M23.01 83.3 C19.44 77.62, 11.68 70.91, 2.04 61.72 M25.2 82.22 C16.94 77.21, 9.8 70.63, -0.02 63.05 M47.35 81.93 C36.74 75.23, 29.8 66.67, -0.79 42.18 M48.74 83.81 C32.01 69.86, 14.85 54.6, 0.1 40.13 M71.52 83.5 C58.24 70.62, 39.76 53.8, -0.14 17.98 M73.22 83.13 C51.39 63.99, 29.77 45.27, -0.63 18.72 M98.6 83.84 C71.98 61.69, 47.86 40.65, 2.23 -0.67 M97.9 83.28 C66.29 55.1, 35.03 28.98, 0.97 -0.22 M119.86 82.43 C97.74 58.25, 69 38.58, 25.33 -0.77 M121.84 82.25 C93.84 58.99, 67.57 36.68, 25.57 -1.3 M147.91 83.95 C123.64 65.44, 105.93 44.59, 51.17 0.59 M146.42 82.64 C110.66 51.19, 74.22 19.98, 49.91 -0.45 M171.93 81.93 C141.99 59.45, 114.45 33.47, 74.64 -2.45 M170.9 82.4 C150.63 65.19, 129.19 46.98, 74.02 -1.39 M194.34 82.86 C174.26 63.83, 153.42 47.95, 98.84 -2.72 M194.44 83.2 C157.26 50.5, 118.55 17.09, 98.86 -0.7 M218.23 82.53 C186.92 54.87, 158.45 27.55, 124.45 -1.67 M219.84 83.85 C187.08 53.36, 156.17 25.46, 123.09 -1.35 M234.25 73.64 C204.62 46.21, 170.61 20.78, 148.46 -3.29 M233.84 74.06 C208.98 51.15, 184.31 31.29, 146.13 -1.35 M234.14 53.87 C209.43 34.05, 188.2 10.7, 173.38 -0.4 M232.94 53.75 C209.47 31.67, 185.04 11.42, 172.65 -0.05 M232.49 29.92 C223.23 23.13, 213.34 13.53, 194.36 -3.19 M234.51 31.12 C224.34 24.96, 217.22 17.49, 196.13 -1.37 M234.75 10.2 C231.82 7.51, 227.52 3.81, 220.04 0.78 M233.42 10.55 C228.98 6.49, 224.93 2.97, 220.85 -1.36"
              stroke="#be4bdb" stroke-width="2" fill="none"></path>
        <path d="M0.24 -0.11 C66.66 1.87, 132.96 1.56, 225.68 0.07 M0.41 -0.04 C88.11 0.93, 174.95 1.5, 225.68 0.66 M225.27 1.68 C226.03 26.07, 226.73 50.96, 227.5 83.28 M226.83 0.29 C227.44 19.67, 226.83 37.6, 226.45 82.61 M224.97 83.42 C142.04 81.2, 55.16 80.09, -0.91 82.16 M226.03 83.59 C169.88 82.8, 112.27 83.49, -0.06 82.58 M-1.23 83.26 C0.42 66.71, 0.94 48.82, 2 -0.57 M-0.15 83.47 C0.11 59.01, 0.78 34.6, 0.9 0.32"
              stroke="#000000" stroke-width="4" fill="none"></path>
    </g>
    <g transform="translate(775.166748046875 404.50018310546875) rotate(0 78.5 12.5)">
        <text x="78.5" y="18" font-family="Virgil, Segoe UI Emoji" font-size="20px" fill="#000000" text-anchor="middle"
              style="white-space: pre;" direction="ltr">read from meta
        </text>
    </g>
    <g stroke-linecap="round" transform="translate(375.3333740234375 689.500244140625) rotate(0 113 41.5)">
        <path d="M0 0 C0 0, 0 0, 0 0 M0 0 C0 0, 0 0, 0 0 M1.54 25.84 C7.17 15.5, 12.12 10.25, 21.02 0.66 M0.56 23.85 C7.68 15.35, 15.48 6.85, 21.47 -0.94 M-0.19 49.49 C16.47 30.1, 29.2 12.14, 43.87 0.68 M0.18 49.88 C11.99 36, 22.84 22.21, 43.15 0.19 M-1.86 72.99 C24.63 44.31, 45.67 18.69, 63.05 1.75 M-0.28 73.59 C15.12 57.92, 29.28 41.02, 63.93 -0.16 M5.46 90.7 C34.25 58.03, 59.32 26.99, 84.87 1.08 M7.52 90.23 C26.02 65.99, 47.03 42.86, 85.75 -0.88 M29.96 91 C55.05 61.16, 80.13 31.32, 105.85 -1.76 M28.77 89.32 C57.42 56.26, 87.24 21.8, 105.45 0.17 M50.25 87.79 C65.83 69.19, 84.01 48.55, 125.57 1.45 M49.98 90.39 C70.5 64.1, 91.16 40.15, 127.87 -0.33 M69.57 87.77 C98.22 55.03, 126.16 22.34, 148.68 0.16 M71.54 89.37 C85.75 70.54, 102.69 51.78, 147.32 -0.46 M92.77 90.64 C109.77 67.94, 130.21 46.02, 170.4 -0.89 M92.03 88.94 C120.8 55.82, 149.97 20.91, 169.33 0.17 M111.76 90.62 C132.63 66.26, 157.06 41.14, 190.62 -1.1 M114.04 89.25 C130.06 69.86, 146.78 51.2, 190.15 1.13 M132.93 88.04 C163.97 54.47, 195.06 23.33, 210.63 -1.71 M134.91 89.62 C159.37 59.74, 186.54 30.92, 211.81 0.64 M154.61 90.91 C181.63 60.71, 206.09 30.39, 229.34 5.56 M156.54 89.28 C182.72 57.05, 212.12 24.22, 229.63 3.07 M178.46 90.45 C192.27 71.17, 210.09 49.84, 228.77 29.08 M176.17 89.08 C189.83 73.19, 204.99 57.18, 230.18 28.7 M199 90.67 C209.58 77.28, 221.06 64.61, 228.21 51.88 M198.15 88.22 C211.12 74.73, 222.07 61.92, 230.63 52.39 M218.38 88.84 C221.91 87.08, 224.31 80.73, 230.31 75.68 M218.18 88.82 C222.57 84.98, 227.5 79.95, 229.46 76.67"
              stroke="#e64980" stroke-width="2" fill="none"></path>
        <path d="M-0.32 0.07 C88.64 -1.47, 173.4 -0.5, 225.91 1.6 M-0.32 0.66 C64.63 -1.39, 128.69 -1.33, 226.72 0.17 M227.5 0.28 C225.02 29.61, 225.86 58.14, 226.58 84.74 M226.45 -0.39 C226.96 31.09, 225.38 61.06, 226.24 83.48 M225.09 82.16 C159.91 81.21, 95.57 81.58, 1.18 84.08 M225.94 82.58 C164.87 84.57, 105.64 83.4, 0.11 83.44 M2 82.43 C-0.92 50.49, 0.49 19.87, 0.95 -0.69 M0.9 83.32 C-0.43 60.01, -0.44 37.18, -0.33 -0.09"
              stroke="#000000" stroke-width="4" fill="none"></path>
    </g>
    <g stroke-linecap="round">
        <g transform="translate(465.4385120338611 84.33331298828125) rotate(0 -155.5529180611113 142.70630123931915)">
            <path d="M0.05 1.04 C-51.78 48.35, -258.56 236.48, -310.15 283.68 M-1.39 0.53 C-53.45 48.02, -259.73 237.37, -311.15 284.88"
                  stroke="#000000" stroke-width="4" fill="none"></path>
        </g>
        <g transform="translate(465.4385120338611 84.33331298828125) rotate(0 -155.5529180611113 142.70630123931915)">
            <path d="M-295.63 258.06 C-303.57 269, -307.66 279.72, -311.44 285.64 M-297.31 257.8 C-302.89 267.37, -306.35 277.33, -310.75 285.43"
                  stroke="#000000" stroke-width="4" fill="none"></path>
        </g>
        <g transform="translate(465.4385120338611 84.33331298828125) rotate(0 -155.5529180611113 142.70630123931915)">
            <path d="M-281.73 273.16 C-294.76 278.55, -303.97 283.71, -311.44 285.64 M-283.42 272.9 C-293.83 277.26, -302.19 281.89, -310.75 285.43"
                  stroke="#000000" stroke-width="4" fill="none"></path>
        </g>
    </g>
    <g stroke-linecap="round">
        <g transform="translate(244.33343505859375 404.96019502902413) rotate(0 60.92014199575408 1.8393767025881687)">
            <path d="M1.04 -0.1 C20.96 0.7, 99.53 3.96, 119.35 4.88 M0.12 -1.2 C20.46 -0.76, 101.88 2.25, 121.72 3.06"
                  stroke="#000000" stroke-width="4" fill="none"></path>
        </g>
        <g transform="translate(244.33343505859375 404.96019502902413) rotate(0 60.92014199575408 1.8393767025881687)">
            <path d="M92.98 11.15 C102.14 9.3, 111.1 6.54, 122.48 4.11 M92.72 11.67 C100.21 10.65, 108.27 7.81, 122.27 3.27"
                  stroke="#000000" stroke-width="4" fill="none"></path>
        </g>
        <g transform="translate(244.33343505859375 404.96019502902413) rotate(0 60.92014199575408 1.8393767025881687)">
            <path d="M93.77 -9.36 C102.71 -5.42, 111.45 -2.42, 122.48 4.11 M93.5 -8.84 C100.95 -4.47, 108.8 -1.94, 122.27 3.27"
                  stroke="#000000" stroke-width="4" fill="none"></path>
        </g>
    </g>
    <g stroke-linecap="round">
        <g transform="translate(599.666748046875 408.44135072887525) rotate(0 65.47601969974119 0.9600495013750105)">
            <path d="M-0.1 -0.65 C21.98 -0.65, 110.37 0.8, 132.57 1.07 M-1.62 1.62 C20.36 2.35, 109.49 2.48, 131.92 2.57"
                  stroke="#000000" stroke-width="4" fill="none"></path>
        </g>
        <g transform="translate(599.666748046875 408.44135072887525) rotate(0 65.47601969974119 0.9600495013750105)">
            <path d="M102.61 13.69 C112.09 11.55, 120.48 7.35, 132.97 1.82 M103.13 12.38 C115.18 9.23, 125.4 5.74, 132.13 3.32"
                  stroke="#000000" stroke-width="4" fill="none"></path>
        </g>
        <g transform="translate(599.666748046875 408.44135072887525) rotate(0 65.47601969974119 0.9600495013750105)">
            <path d="M102.68 -6.83 C112.31 -2.74, 120.68 -0.7, 132.97 1.82 M103.2 -8.14 C115.23 -3.55, 125.42 0.7, 132.13 3.32"
                  stroke="#000000" stroke-width="4" fill="none"></path>
        </g>
    </g>
    <g stroke-linecap="round" transform="translate(743.3333740234375 682.4999389648438) rotate(0 113 41.5)">
        <path d="M0 0 C0 0, 0 0, 0 0 M0 0 C0 0, 0 0, 0 0 M1 25.37 C4.2 18.28, 9.61 13.33, 20.7 -0.07 M-0.6 24.74 C6.41 16.62, 12.23 10.43, 21.8 -0.61 M0.69 48.49 C11.06 36.47, 18.65 29.96, 43.98 0.55 M0.2 49.62 C12.13 35.12, 21.82 22.13, 43.3 -1.02 M2.1 71.44 C14.53 54.21, 31.5 37.5, 64.21 1.75 M0.19 73.43 C20.87 48.57, 40.6 25.81, 64.16 -0.77 M8.33 88.7 C27.89 67.21, 48.37 45.35, 83.23 -0.67 M6.37 89.87 C30.87 62.47, 53.98 36.8, 85.77 0.53 M26.82 91.04 C52.54 59.56, 79.33 30.91, 105.27 0.61 M28.74 88.64 C49.62 66.3, 71.37 40.12, 106.07 -0.47 M50.6 88.88 C78.42 59.21, 104.43 30.61, 127.89 -1.45 M48.82 90.1 C73.09 62.54, 94.62 35.7, 126.55 -0.33 M70.64 87.47 C88.95 69.69, 108.18 48.51, 146.17 0.25 M70.02 88.81 C94.24 64.7, 116.72 38.59, 147.66 0.98 M90.91 90.9 C115.71 60.69, 139.14 33.23, 168.32 0.85 M91.98 88.93 C107.8 70.48, 123.23 53.84, 168.56 0.36 M112.03 87.6 C146.53 52.71, 177.05 18.23, 191.86 -0.01 M114.27 89.97 C136.76 60.04, 161.78 31.43, 190.45 -0.66 M132.76 89.71 C162.64 56.75, 192.08 24.84, 210.54 -0.01 M135.11 89.57 C163.93 53.94, 195.07 19.36, 211.67 0.64 M157.58 90.56 C172.39 72.44, 189.34 52.73, 228.65 5.04 M155.09 89.33 C186.02 55.13, 214.9 22.99, 229.12 4.72 M178.28 88.1 C189.72 75.11, 200.49 60.37, 228.65 27.73 M177.9 89.54 C196.7 66.46, 218.02 43.43, 230.08 28.59 M197.5 90.32 C205.71 78.95, 216.79 65.78, 231.41 51.41 M198.02 88.98 C209.02 78.01, 217.44 65.86, 229.63 53.55 M217.83 91.19 C222.59 87.98, 222.48 82.31, 228.77 77.79 M218.82 90.32 C222.18 85.97, 226.04 82.22, 229.23 77.26"
              stroke="#82c91e" stroke-width="2" fill="none"></path>
        <path d="M1.6 -0.24 C56.19 1, 110.44 1.42, 226.08 -0.75 M0.17 0.34 C55.49 -1.44, 110.68 -1.51, 225.39 0.59 M227.74 1.43 C227.2 21.81, 227.58 44.1, 227.5 83.52 M226.48 -0.11 C224.75 17.26, 224.97 35.56, 225.51 82.82 M227.08 82.44 C156.48 85.15, 88.44 83.5, -1.45 84.28 M226.44 83.67 C147.29 83.91, 68.09 83.01, -0.12 82.53 M-0.69 82.54 C0.77 51.64, 1.93 24.45, -0.32 -0.04 M-0.09 82.12 C0.13 60.23, -0.67 36.62, -0.11 0.35"
              stroke="#000000" stroke-width="4" fill="none"></path>
    </g>
    <g transform="translate(750.8333740234375 698.9999389648438) rotate(0 105.5 25.5)">
        <text x="105.5" y="17.5" font-family="Virgil, Segoe UI Emoji" font-size="20px" fill="#000000"
              text-anchor="middle" style="white-space: pre;" direction="ltr">check ec and degist,
        </text>
        <text x="105.5" y="43" font-family="Virgil, Segoe UI Emoji" font-size="20px" fill="#000000" text-anchor="middle"
              style="white-space: pre;" direction="ltr">heal
        </text>
    </g>
    <g stroke-linecap="round">
        <g transform="translate(859.9600335579576 469) rotate(0 3.1353797963995476 102.08231166342274)">
            <path d="M-0.17 0.46 C1.17 34.14, 6.58 169.34, 7.99 203.21 M-1.72 -0.35 C-0.47 34.01, 5.75 170.28, 7.37 204.51"
                  stroke="#000000" stroke-width="4" fill="none"></path>
        </g>
        <g transform="translate(859.9600335579576 469) rotate(0 3.1353797963995476 102.08231166342274)">
            <path d="M-3.42 177.88 C-1.27 186.56, 2.98 192.3, 6.24 203.79 M-3.63 177.04 C1.06 187.55, 4.03 198.73, 7.08 205.35"
                  stroke="#000000" stroke-width="4" fill="none"></path>
        </g>
        <g transform="translate(859.9600335579576 469) rotate(0 3.1353797963995476 102.08231166342274)">
            <path d="M17.08 176.93 C13.2 185.86, 11.4 191.88, 6.24 203.79 M16.87 176.09 C13.69 187.05, 8.79 198.59, 7.08 205.35"
                  stroke="#000000" stroke-width="4" fill="none"></path>
        </g>
    </g>
    <g stroke-linecap="round">
        <g transform="translate(737.0001220703127 725.6009714239141) rotate(0 -64.59066226063305 2.7357631363384023)">
            <path d="M0.46 0.63 C-21.14 1.58, -107.05 4.98, -128.45 5.56 M-0.76 -0.08 C-22.66 0.56, -108.32 3.05, -129.64 3.92"
                  stroke="#000000" stroke-width="4" fill="none"></path>
        </g>
        <g transform="translate(737.0001220703127 725.6009714239141) rotate(0 -64.59066226063305 2.7357631363384023)">
            <path d="M-100.76 -8.05 C-111.23 -2.69, -124.6 0.51, -130.36 5.6 M-101.6 -6.54 C-110.53 -4.27, -118.88 -0.27, -128.8 4.21"
                  stroke="#000000" stroke-width="4" fill="none"></path>
        </g>
        <g transform="translate(737.0001220703127 725.6009714239141) rotate(0 -64.59066226063305 2.7357631363384023)">
            <path d="M-100.06 12.46 C-110.78 9.76, -124.43 4.88, -130.36 5.6 M-100.9 13.97 C-110.13 9.68, -118.71 7.13, -128.8 4.21"
                  stroke="#000000" stroke-width="4" fill="none"></path>
        </g>
    </g>
    <g transform="translate(430.3333740234375 718.500244140625) rotate(0 58 12.5)">
        <text x="58" y="18" font-family="Virgil, Segoe UI Emoji" font-size="20px" fill="#000000" text-anchor="middle"
              style="white-space: pre;" direction="ltr">file content
        </text>
    </g>
</svg>