<svg version="1.1" xmlns="http://www.w3.org/2000/svg" viewBox="0 0 2175.389017740884 1035.1667709350586"
     width="2175.389017740884" height="1035.1667709350586">
    <!-- svg-source:excalidraw -->

    <defs>
        <style>
            @font-face {
            font-family: "Virgil";
            src: url("https://unpkg.com/@excalidraw/excalidraw@0.13.0-4d26993/dist/excalidraw-assets/Virgil.woff2");
            }
            @font-face {
            font-family: "Cascadia";
            src: url("https://unpkg.com/@excalidraw/excalidraw@0.13.0-4d26993/dist/excalidraw-assets/Cascadia.woff2");
            }
        </style>
    </defs>
    <rect x="0" y="0" width="2175.389017740884" height="1035.1667709350586" fill="#ffffff"></rect>
    <g stroke-linecap="round"
       transform="translate(373.2775777180989 58.33335876464844) rotate(0 327.33331298828125 481.83341217041016)">
        <path d="M-0.72 -0.09 C155.18 0.99, 311.34 0.83, 655.06 -0.59 M0.1 -0.17 C235.15 -1.12, 470.68 -1.32, 654.54 0.01 M655.4 -0.64 C652.24 337.24, 651.84 676.19, 655.36 964.14 M654.61 0.08 C657.9 304.8, 657.6 609.61, 654.9 963.9 M654.22 963.65 C477.88 965.67, 300.85 965.5, -0.21 963.33 M654.85 963.34 C422.06 963.39, 190.25 963.17, 0.26 963.27 M0.46 963.88 C-1.91 694.69, -1.5 427.17, -0.46 0.71 M-0.14 963.61 C-1.96 725.88, -2.1 488.34, -0.07 0.13"
              stroke="#c92a2a" stroke-width="1" fill="none"></path>
    </g>
    <g transform="translate(553.9441426595051 12.66668701171875) rotate(0 99.5 12.5)">
        <text x="0" y="18" font-family="Virgil, Segoe UI Emoji" font-size="20px" fill="#000000" text-anchor="start"
              style="white-space: pre;" direction="ltr">reed solomon encode
        </text>
    </g>
    <g stroke-linecap="round"
       transform="translate(567.2778015136719 271.0001322428385) rotate(0 104.66668701171875 36.16667175292969)">
        <path d="M0.19 -0.92 C73.24 0.03, 143.24 -2.21, 209.41 0.26 M-0.77 -0.04 C44.38 1.03, 88.16 0.88, 209.69 -0.51 M210.15 1.55 C208.16 15.79, 210.28 28.65, 211.17 70.52 M208.8 -0.68 C209.71 28, 208.26 57.22, 208.97 73.24 M208.47 72.93 C137.01 70.06, 67.61 72.21, -0.67 72.39 M209.93 72.04 C160.21 72.78, 109.87 73.03, 0.1 71.47 M-1.23 72.79 C1.71 45.39, -1.36 17.87, 0.81 1.37 M0.36 73.22 C-0.99 46.2, 0.69 19.28, -0.51 0.69"
              stroke="#000000" stroke-width="1" fill="none"></path>
    </g>
    <g transform="translate(582.9444885253906 282.1668039957682) rotate(0 89 25.5)">
        <text x="89" y="17.5" font-family="Virgil, Segoe UI Emoji" font-size="20px" fill="#000000" text-anchor="middle"
              style="white-space: pre;" direction="ltr">set data shards
        </text>
        <text x="89" y="43" font-family="Virgil, Segoe UI Emoji" font-size="20px" fill="#000000" text-anchor="middle"
              style="white-space: pre;" direction="ltr">and parity shards
        </text>
    </g>
    <g stroke-linecap="round"
       transform="translate(557.4998067220054 451.8336639404299) rotate(0 104.66668701171875 36.16667175292969)">
        <path d="M0.49 -1.42 C44.19 -0.08, 87.32 -2.54, 210.29 0.66 M-0.82 0.2 C56.49 -0.93, 113.1 0.36, 209.8 -0.84 M207.77 0.23 C208.1 18.4, 211.01 35.84, 210.8 72.82 M210.07 0.98 C209.14 26.11, 209.3 51.27, 208.84 71.63 M209.63 73.32 C139.24 74.34, 69.35 74.32, 0.32 73.07 M208.98 73.17 C146.81 74.48, 84.67 74.56, 0.09 71.45 M1.2 73.45 C1.69 49.22, -0.26 27.86, 0.82 -0.12 M-0.05 72.63 C0.93 44.63, -0.23 16.49, -0.73 -0.36"
              stroke="#000000" stroke-width="1" fill="none"></path>
    </g>
    <g transform="translate(570.6664937337241 463.0003356933596) rotate(0 91.5 25.5)">
        <text x="91.5" y="17.5" font-family="Virgil, Segoe UI Emoji" font-size="20px" fill="#000000"
              text-anchor="middle" style="white-space: pre;" direction="ltr">slite content into
        </text>
        <text x="91.5" y="43" font-family="Virgil, Segoe UI Emoji" font-size="20px" fill="#000000" text-anchor="middle"
              style="white-space: pre;" direction="ltr">data and parity
        </text>
    </g>
    <g stroke-linecap="round"
       transform="translate(568.6109720865886 637.9444936116533) rotate(0 104.66668701171875 36.16667175292969)">
        <path d="M-0.22 1.75 C68.05 -2.1, 133.02 -1.8, 210.56 1.27 M-0.38 -0.17 C54.55 -1.7, 110.27 -1.86, 209.24 0.04 M209.5 -0.34 C208.63 17.61, 209.72 30.49, 208.76 71.93 M209.5 -0.04 C209.51 26.87, 208.58 54.55, 209.99 73.09 M210.91 72.54 C167.89 72.27, 124.46 72.57, -0.57 70.88 M208.58 72.25 C145.22 71.19, 82.44 71.63, 0.61 73.17 M0.5 74.05 C0.87 53.85, -0.87 36.61, 0.35 0.31 M-0.55 72.57 C0.91 48.19, 0.75 25.14, -0.42 -0.37"
              stroke="#000000" stroke-width="1" fill="none"></path>
    </g>
    <g transform="translate(602.7776590983074 661.611165364583) rotate(0 70.5 12.5)">
        <text x="70.5" y="18" font-family="Virgil, Segoe UI Emoji" font-size="20px" fill="#000000" text-anchor="middle"
              style="white-space: pre;" direction="ltr">encode shards
        </text>
    </g>
    <g stroke-linecap="round"
       transform="translate(568.3887227376301 803.9445139567056) rotate(0 104.66668701171875 36.16667175292969)">
        <path d="M-0.57 0.45 C63.71 -2.37, 131.2 -1.1, 210.5 1.41 M-0.47 0.7 C71.58 1.92, 143.04 1.25, 208.95 0.86 M210.62 -1.63 C209.36 17.75, 209.23 37.39, 210.3 72.18 M209.74 0.86 C210.22 16.5, 209.69 33.38, 209.47 72.95 M209.89 71.12 C129.9 73.07, 51.66 71.44, 1.75 70.98 M209.96 72.01 C164.35 71.11, 120.7 71.41, -0.8 72.96 M-1.42 74.29 C0.66 55.87, 0.67 42.46, -1.65 -0.53 M0.34 71.5 C1 46.59, 1.25 21.55, 0.7 0.95"
              stroke="#000000" stroke-width="1" fill="none"></path>
    </g>
    <g transform="translate(608.0554097493489 827.6111857096353) rotate(0 65 12.5)">
        <text x="65" y="18" font-family="Virgil, Segoe UI Emoji" font-size="20px" fill="#000000" text-anchor="middle"
              style="white-space: pre;" direction="ltr">verify shards
        </text>
    </g>
    <g stroke-linecap="round"
       transform="translate(10 424.11136372884107) rotate(0 104.66668701171875 36.16667175292969)">
        <path d="M1 -0.31 C66.84 -0.73, 132.81 0.3, 210.34 -0.26 M-0.69 -0.2 C44.98 -2.05, 88.38 -0.5, 209.38 -0.79 M207.9 1.22 C210.22 17.05, 207.2 30.21, 208.09 72.18 M209.35 0.84 C207.96 14.57, 209.58 28.9, 209.45 71.88 M209.22 73.33 C150.74 71.46, 94.57 72.63, -0.67 70.8 M208.83 72.24 C131.57 72.37, 55.42 71.69, -0.19 71.67 M-1.21 72.85 C0.92 58.12, -0.6 39.33, -0.82 -0.61 M0.66 71.62 C-0.2 46.09, 0.92 19.85, -0.44 -0.81"
              stroke="#000000" stroke-width="1" fill="none"></path>
    </g>
    <g transform="translate(77.16668701171875 447.77803548177076) rotate(0 37.5 12.5)">
        <text x="37.5" y="18" font-family="Virgil, Segoe UI Emoji" font-size="20px" fill="#000000" text-anchor="middle"
              style="white-space: pre;" direction="ltr">content
        </text>
    </g>
    <g stroke-linecap="round"
       transform="translate(1164.9443257649739 61.49994659423828) rotate(0 327.33331298828125 481.83341217041016)">
        <path d="M0.45 0.69 C219.62 2.09, 438.66 1.67, 655.36 -0.52 M0.15 -0.1 C204.16 1.5, 408.77 0.84, 654.88 0.37 M654.22 -0.61 C655.01 227.11, 655.49 454.29, 654.06 963.62 M654.75 0.02 C657.1 217.9, 656.55 436.59, 654.75 963.59 M653.87 964.01 C448.92 966.29, 243.97 965.85, -0.63 963.21 M654.74 963.46 C396.12 964.97, 136.93 964.86, -0.29 963.8 M-0.41 964.03 C2 669.47, 2.27 375.07, -0.17 0.79 M0.18 963.35 C2.08 686.51, 2.38 408.82, -0.25 -0.3"
              stroke="#c92a2a" stroke-width="1" fill="none"></path>
    </g>
    <g transform="translate(1370.9442647298176 10) rotate(0 100.5 12.5)">
        <text x="0" y="18" font-family="Virgil, Segoe UI Emoji" font-size="20px" fill="#000000" text-anchor="start"
              style="white-space: pre;" direction="ltr">reed solomon decode
        </text>
    </g>
    <g stroke-linecap="round"
       transform="translate(1390.8332519531252 165.13890838623047) rotate(0 104.66668701171875 36.16667175292969)">
        <path d="M-0.11 0.03 C67.66 -2.41, 131.11 0.2, 210.75 -1.76 M-0.67 0.4 C57.76 1.57, 114.08 1.4, 209.35 0.34 M211.26 0.54 C209.24 23.37, 211.73 46.05, 209.98 72.75 M209.55 0.08 C209.35 26.81, 209.36 54.86, 209.08 71.54 M207.88 71.78 C143.52 72.69, 73.77 72.06, -0.23 73.16 M209.79 72.45 C139.21 71.63, 69.3 72.45, 0.2 72.37 M-0.66 72.11 C1.26 56.38, 0.13 37.8, 0.86 1.08 M0.87 72.46 C0.04 56.63, 1.13 41.96, 0.95 -0.43"
              stroke="#000000" stroke-width="1" fill="none"></path>
    </g>
    <g transform="translate(1406.499938964844 176.30558013916016) rotate(0 89 25.5)">
        <text x="89" y="17.5" font-family="Virgil, Segoe UI Emoji" font-size="20px" fill="#000000" text-anchor="middle"
              style="white-space: pre;" direction="ltr">use data shards
        </text>
        <text x="89" y="43" font-family="Virgil, Segoe UI Emoji" font-size="20px" fill="#000000" text-anchor="middle"
              style="white-space: pre;" direction="ltr">and parity shards
        </text>
    </g>
    <g stroke-linecap="round"
       transform="translate(1388.8329874674475 362.6392593383789) rotate(0 104.66668701171875 36.16667175292969)">
        <path d="M1.46 -1.03 C77.12 1.55, 158.22 -1.79, 208.85 -1.66 M0.64 -0.12 C43.43 -1.14, 87.23 -0.5, 209.59 0.56 M208.78 -0.45 C211.97 13.12, 210.68 29.81, 211.02 73.41 M208.96 -0.99 C209.12 27.52, 209.24 55.75, 209.56 72.3 M210.97 72.39 C142.45 71.18, 76.66 72.58, 0.58 71.9 M208.85 72.35 C154 73.42, 100.34 72.62, -0.59 72.1 M1.07 73.27 C0.18 53.86, 1.1 37.97, -1.88 -1.45 M-0.49 71.53 C-0.02 53.13, 0.32 34.63, 0.83 0.27"
              stroke="#000000" stroke-width="1" fill="none"></path>
    </g>
    <g transform="translate(1406.4996744791663 373.8059310913086) rotate(0 87 25.5)">
        <text x="87" y="17.5" font-family="Virgil, Segoe UI Emoji" font-size="20px" fill="#000000" text-anchor="middle"
              style="white-space: pre;" direction="ltr">reconstruct data
        </text>
        <text x="87" y="43" font-family="Virgil, Segoe UI Emoji" font-size="20px" fill="#000000" text-anchor="middle"
              style="white-space: pre;" direction="ltr">from shards
        </text>
    </g>
    <g stroke-linecap="round" transform="translate(1395.3327738444007 589.3889032999675) rotate(0 105 30)">
        <path d="M-1.28 1.58 C64.73 -0.68, 126.15 -0.58, 208.38 -1.34 M-0.18 -0.3 C72.48 0.6, 145.19 0.82, 209.14 0.85 M211.94 -1.58 C210.48 20.02, 211.52 40.29, 211.82 60.43 M209.63 -0.75 C209.52 17.72, 210 36.98, 210.16 59.18 M209.33 59.42 C153.31 60.88, 97.67 59.63, -0.69 60.91 M209.26 60.84 C144.38 60.08, 77.78 59.81, -0.49 59.71 M-0.06 59.25 C0.54 43.75, -2.2 23.88, -0.85 1.75 M0.61 59.43 C1.24 40.78, 1.12 22.7, 0.14 0.03"
              stroke="#000000" stroke-width="1" fill="none"></path>
    </g>
    <g transform="translate(1410.4994608561194 594.3889032999675) rotate(0 89.5 25.5)">
        <text x="89.5" y="17.5" font-family="Virgil, Segoe UI Emoji" font-size="20px" fill="#000000"
              text-anchor="middle" style="white-space: pre;" direction="ltr">get content from
        </text>
        <text x="89.5" y="43" font-family="Virgil, Segoe UI Emoji" font-size="20px" fill="#000000" text-anchor="middle"
              style="white-space: pre;" direction="ltr">encode shards
        </text>
    </g>
    <g stroke-linecap="round"
       transform="translate(1391.3329366048176 792.861132303874) rotate(0 104.66668701171875 36.16667175292969)">
        <path d="M1.42 -1.76 C50.11 -3.32, 99.55 -3, 210.13 1.27 M0.02 0.34 C60.15 1.19, 118.92 1.48, 209.57 -0.25 M209.98 0.42 C211.72 21.17, 211.85 40.61, 209.5 71.58 M209.08 -0.79 C209.29 14.48, 209.23 28.21, 209.02 73.26 M209.1 73.16 C146.45 71.3, 81.72 72.64, 0.24 71.37 M209.53 72.37 C145.51 73.86, 82.39 73.8, -0.1 72.81 M0.86 73.41 C-1.86 45.8, -0.82 23.92, 0.26 -0.97 M0.95 71.9 C0.38 56.72, -0.3 40.6, 0.54 -0.97"
              stroke="#000000" stroke-width="1" fill="none"></path>
    </g>
    <g transform="translate(1446.4996236165364 816.5278040568037) rotate(0 49.5 12.5)">
        <text x="49.5" y="18" font-family="Virgil, Segoe UI Emoji" font-size="20px" fill="#000000" text-anchor="middle"
              style="white-space: pre;" direction="ltr">check md5
        </text>
    </g>
    <g stroke-linecap="round">
        <g transform="translate(223.49993896484386 468.0496441721036) rotate(0 63.62464206864274 0.7970708601959018)">
            <path d="M-0.05 -0.87 C21.46 -0.56, 107.3 2.11, 128.78 2.46 M-1.53 1.29 C19.93 1.16, 106.66 0.32, 128.36 0.44"
                  stroke="#000000" stroke-width="1" fill="none"></path>
        </g>
        <g transform="translate(223.49993896484386 468.0496441721036) rotate(0 63.62464206864274 0.7970708601959018)">
            <path d="M98.75 12.46 C108.33 9.68, 114.13 6.33, 127.68 1.68 M100.24 11.17 C110.14 7.12, 121 2.66, 128.85 0.44"
                  stroke="#000000" stroke-width="1" fill="none"></path>
        </g>
        <g transform="translate(223.49993896484386 468.0496441721036) rotate(0 63.62464206864274 0.7970708601959018)">
            <path d="M98.68 -8.06 C108.39 -5.11, 114.21 -2.73, 127.68 1.68 M100.18 -9.35 C109.92 -5.53, 120.79 -2.11, 128.85 0.44"
                  stroke="#000000" stroke-width="1" fill="none"></path>
        </g>
    </g>
    <g stroke-linecap="round"
       transform="translate(1956.0556437174466 438.8888498942056) rotate(0 104.66668701171875 36.16667175292969)">
        <path d="M0.25 1.7 C55.55 -0.57, 113.45 -3.12, 210.62 -1.31 M-0.36 -0.33 C63.15 0.08, 126.95 1.26, 208.96 0.77 M208.42 0.22 C208.03 26.35, 210.41 54.71, 209 71.97 M208.55 0.14 C210.12 22.64, 209.43 47.58, 209.18 73.15 M209.13 71.25 C138.4 73.27, 65.89 71.83, 0.5 71.29 M209.7 72.46 C157.61 72.17, 106.34 73.02, -0.1 72.82 M0.74 71.68 C-0.35 53.88, -0.97 34.05, 0.37 -0.08 M-0.75 72.37 C-0.27 44.08, 0.19 16.17, -0.84 0.09"
              stroke="#000000" stroke-width="1" fill="none"></path>
    </g>
    <g transform="translate(2023.2223307291654 462.55552164713527) rotate(0 37.5 12.5)">
        <text x="37.5" y="18" font-family="Virgil, Segoe UI Emoji" font-size="20px" fill="#000000" text-anchor="middle"
              style="white-space: pre;" direction="ltr">content
        </text>
    </g>
    <g stroke-linecap="round"
       transform="translate(566.1108093261719 100.11124674479197) rotate(0 104.66668701171875 36.16667175292969)">
        <path d="M0.44 -0.64 C46.65 -0.45, 93.59 -0.51, 210.28 0.06 M-0.88 -0.44 C68.66 1.59, 136.29 1.14, 208.58 -0.53 M208.7 1.19 C210.26 27.82, 207.29 54.26, 207.39 70.42 M210.06 -0.62 C208.88 18.63, 208.89 37.55, 208.66 72.02 M207.98 71.91 C143.93 71.45, 77.44 72.92, 1.45 72.93 M209.49 73.09 C155.7 72.09, 102.27 71.66, 0.84 71.8 M1.57 71.92 C-1.18 44.78, -1.05 18.09, -1.85 -1.55 M0.54 72.1 C1.21 47.48, -0.27 21.39, 0.25 0.35"
              stroke="#000000" stroke-width="1" fill="none"></path>
    </g>
    <g transform="translate(609.7774963378906 123.77791849772166) rotate(0 61 12.5)">
        <text x="61" y="18" font-family="Virgil, Segoe UI Emoji" font-size="20px" fill="#000000" text-anchor="middle"
              style="white-space: pre;" direction="ltr">md5 content
        </text>
    </g>
    <g stroke-linecap="round">
        <g transform="translate(1840.7775980631507 475.68876816743693) rotate(0 51.42368401060344 -0.2489625090845209)">
            <path d="M0.13 0.88 C17.34 0.62, 86.97 -0.91, 104.11 -1.38 M-1.26 0.3 C15.79 0.2, 86.35 0.23, 103.57 0.02"
                  stroke="#000000" stroke-width="1" fill="none"></path>
        </g>
        <g transform="translate(1840.7775980631507 475.68876816743693) rotate(0 51.42368401060344 -0.2489625090845209)">
            <path d="M76.9 11.71 C85.32 5.97, 94.8 4.27, 105.47 -1.48 M74.55 10.97 C83.12 7.36, 91.75 4.5, 104.39 -0.2"
                  stroke="#000000" stroke-width="1" fill="none"></path>
        </g>
        <g transform="translate(1840.7775980631507 475.68876816743693) rotate(0 51.42368401060344 -0.2489625090845209)">
            <path d="M76.79 -8.81 C85.29 -6.99, 94.81 -1.15, 105.47 -1.48 M74.44 -9.56 C83.13 -7.46, 91.79 -4.62, 104.39 -0.2"
                  stroke="#000000" stroke-width="1" fill="none"></path>
        </g>
    </g>
    <g stroke-linecap="round">
        <g transform="translate(687.4442647298176 179.61115010579454) rotate(0 -1.810432808649125 43.91854238438265)">
            <path d="M1.07 0.57 C0.56 15.08, -3.01 73.65, -3.98 88.02 M0.17 -0.18 C-0.38 13.92, -3.71 71.64, -4.69 86.32"
                  stroke="#000000" stroke-width="1" fill="none"></path>
        </g>
        <g transform="translate(687.4442647298176 179.61115010579454) rotate(0 -1.810432808649125 43.91854238438265)">
            <path d="M-12.26 58.32 C-9.77 63.33, -9.92 68.81, -2.78 85.49 M-12.47 57.14 C-10.8 65.71, -8.6 71.36, -4.13 86.92"
                  stroke="#000000" stroke-width="1" fill="none"></path>
        </g>
        <g transform="translate(687.4442647298176 179.61115010579454) rotate(0 -1.810432808649125 43.91854238438265)">
            <path d="M8.22 59.58 C6.17 64.48, 1.48 69.69, -2.78 85.49 M8.01 58.39 C4.57 66.59, 1.65 71.92, -4.13 86.92"
                  stroke="#000000" stroke-width="1" fill="none"></path>
        </g>
    </g>
    <g stroke-linecap="round">
        <g transform="translate(664.1109313964841 346.27781677246116) rotate(0 -2.752346876760271 52.97157995253801)">
            <path d="M-0.21 -1.17 C-1.07 16.53, -4.46 89.37, -5.3 107.11 M-1.78 0.83 C-2.25 18.13, -2.88 87.96, -3.03 105.52"
                  stroke="#000000" stroke-width="1" fill="none"></path>
        </g>
        <g transform="translate(664.1109313964841 346.27781677246116) rotate(0 -2.752346876760271 52.97157995253801)">
            <path d="M-14.98 75.81 C-8.26 84.15, -8.44 92.99, -1.95 106.31 M-12.37 76.81 C-10.79 84.49, -6.53 92.76, -3.52 105.04"
                  stroke="#000000" stroke-width="1" fill="none"></path>
        </g>
        <g transform="translate(664.1109313964841 346.27781677246116) rotate(0 -2.752346876760271 52.97157995253801)">
            <path d="M5.54 76 C6.33 84.25, 0.23 93.04, -1.95 106.31 M8.15 77 C4.03 84.52, 2.57 92.75, -3.52 105.04"
                  stroke="#000000" stroke-width="1" fill="none"></path>
        </g>
    </g>
    <g stroke-linecap="round">
        <g transform="translate(668.5554097493489 529.6111501057944) rotate(0 -2.6789747352402173 52.980045342249795)">
            <path d="M0.16 0.96 C-0.76 18.19, -4.76 86.74, -5.52 103.96 M-1.21 0.43 C-1.77 17.81, -2.72 88.58, -3.38 105.53"
                  stroke="#000000" stroke-width="1" fill="none"></path>
        </g>
        <g transform="translate(668.5554097493489 529.6111501057944) rotate(0 -2.6789747352402173 52.980045342249795)">
            <path d="M-11.35 75.31 C-9.81 85.75, -6.41 95.6, -2.11 103.93 M-13.13 77.08 C-11.53 82.65, -9.56 88.78, -3.37 105.05"
                  stroke="#000000" stroke-width="1" fill="none"></path>
        </g>
        <g transform="translate(668.5554097493489 529.6111501057944) rotate(0 -2.6789747352402173 52.980045342249795)">
            <path d="M9.17 75.8 C4.53 86.12, 1.75 95.82, -2.11 103.93 M7.38 77.57 C4.53 82.9, 2.05 88.93, -3.37 105.05"
                  stroke="#000000" stroke-width="1" fill="none"></path>
        </g>
    </g>
    <g stroke-linecap="round">
        <g transform="translate(671.8887430826821 714.0556284586589) rotate(0 -1.6189045442283714 39.6337892894944)">
            <path d="M0.37 -0.85 C-0.07 12.58, -2.31 66.69, -3.27 80.11 M-0.9 1.32 C-1.33 14.44, -3.25 65.04, -3.61 78.34"
                  stroke="#000000" stroke-width="1" fill="none"></path>
        </g>
        <g transform="translate(671.8887430826821 714.0556284586589) rotate(0 -1.6189045442283714 39.6337892894944)">
            <path d="M-14.34 51.78 C-9.64 55.11, -8.04 63.97, -5.59 79.69 M-12.14 49.81 C-11.52 55.98, -9.04 63.67, -3.5 77.95"
                  stroke="#000000" stroke-width="1" fill="none"></path>
        </g>
        <g transform="translate(671.8887430826821 714.0556284586589) rotate(0 -1.6189045442283714 39.6337892894944)">
            <path d="M6.17 52.46 C5.87 55.68, 2.46 64.38, -5.59 79.69 M8.37 50.49 C3.91 56.46, 1.31 63.99, -3.5 77.95"
                  stroke="#000000" stroke-width="1" fill="none"></path>
        </g>
    </g>
    <g stroke-linecap="round">
        <g transform="translate(1040.777598063151 481.83333841959666) rotate(0 50.99885517998132 0.542601524718691)">
            <path d="M1.05 0.45 C18.09 0.63, 84.93 0.15, 101.85 0.13 M0.15 -0.36 C17.03 0.08, 83.73 1.14, 100.71 1.45"
                  stroke="#000000" stroke-width="1" fill="none"></path>
        </g>
        <g transform="translate(1040.777598063151 481.83333841959666) rotate(0 50.99885517998132 0.542601524718691)">
            <path d="M73.09 10.6 C79.35 8.91, 87.3 6.61, 99.59 0.86 M71.44 11.26 C83.52 7.14, 94.72 4.44, 100.55 1.61"
                  stroke="#000000" stroke-width="1" fill="none"></path>
        </g>
        <g transform="translate(1040.777598063151 481.83333841959666) rotate(0 50.99885517998132 0.542601524718691)">
            <path d="M73.44 -9.92 C79.44 -6.08, 87.29 -2.86, 99.59 0.86 M71.79 -9.26 C83.62 -5.42, 94.68 -0.18, 100.55 1.61"
                  stroke="#000000" stroke-width="1" fill="none"></path>
        </g>
    </g>
    <g stroke-linecap="round">
        <g transform="translate(1503.3521446098478 251.83333841959654) rotate(0 -1.5914083284749267 48.95536026405949)">
            <path d="M0.4 0.08 C0.1 16.37, -1.97 82.59, -2.56 98.84 M-0.84 -0.93 C-1.26 15.56, -3.62 80.66, -3.59 97.28"
                  stroke="#000000" stroke-width="1" fill="none"></path>
        </g>
        <g transform="translate(1503.3521446098478 251.83333841959654) rotate(0 -1.5914083284749267 48.95536026405949)">
            <path d="M-13.16 68.65 C-8.94 74.42, -8.73 81.55, -4.38 97.83 M-13.24 68.05 C-11.26 75.79, -7.93 81.95, -4.19 96.45"
                  stroke="#000000" stroke-width="1" fill="none"></path>
        </g>
        <g transform="translate(1503.3521446098478 251.83333841959654) rotate(0 -1.5914083284749267 48.95536026405949)">
            <path d="M7.35 69.05 C6.67 74.8, 1.98 81.83, -4.38 97.83 M7.27 68.45 C4.61 76.18, 3.29 82.25, -4.19 96.45"
                  stroke="#000000" stroke-width="1" fill="none"></path>
        </g>
    </g>
    <g stroke-linecap="round">
        <g transform="translate(1500.3587116686606 439.05552673339866) rotate(0 1.8752102644521074 70.97045379032696)">
            <path d="M0.77 -1.17 C1.6 22.86, 3.73 119.29, 4.03 143.11 M-0.28 0.83 C0.55 24.58, 3.27 117.61, 3.58 141.23"
                  stroke="#000000" stroke-width="1" fill="none"></path>
        </g>
        <g transform="translate(1500.3587116686606 439.05552673339866) rotate(0 1.8752102644521074 70.97045379032696)">
            <path d="M-9.25 114.86 C-4.35 118.6, -4.24 125.75, 3.77 141.61 M-8.27 112.98 C-4.53 121.79, -0.64 130.82, 3.09 140.5"
                  stroke="#000000" stroke-width="1" fill="none"></path>
        </g>
        <g transform="translate(1500.3587116686606 439.05552673339866) rotate(0 1.8752102644521074 70.97045379032696)">
            <path d="M11.26 114.4 C11.62 118.37, 7.2 125.62, 3.77 141.61 M12.24 112.52 C9.72 121.26, 7.34 130.44, 3.09 140.5"
                  stroke="#000000" stroke-width="1" fill="none"></path>
        </g>
    </g>
    <g stroke-linecap="round">
        <g transform="translate(1501.1360005672407 658.9166717529299) rotate(0 0.3564357138973264 66.8000183372976)">
            <path d="M0.05 0.74 C0.24 22.95, -0.28 110.42, -0.04 132.31 M-1.39 0.09 C-0.74 22.52, 1.71 111.37, 2.1 133.51"
                  stroke="#000000" stroke-width="1" fill="none"></path>
        </g>
        <g transform="translate(1501.1360005672407 658.9166717529299) rotate(0 0.3564357138973264 66.8000183372976)">
            <path d="M-7.58 103.74 C-7.89 111.95, -6.05 117.3, 3.85 131.93 M-7.93 105.17 C-6.1 115.02, -1.96 124.16, 2.44 133.3"
                  stroke="#000000" stroke-width="1" fill="none"></path>
        </g>
        <g transform="translate(1501.1360005672407 658.9166717529299) rotate(0 0.3564357138973264 66.8000183372976)">
            <path d="M12.94 103.26 C8.48 111.58, 6.17 117.02, 3.85 131.93 M12.59 104.69 C7.73 114.8, 5.2 124.09, 2.44 133.3"
                  stroke="#000000" stroke-width="1" fill="none"></path>
        </g>
    </g>
</svg>