<svg version="1.1" xmlns="http://www.w3.org/2000/svg" viewBox="0 0 979.3333740234375 1124.8335571289062"
     width="979.3333740234375" height="1124.8335571289062">
    <!-- svg-source:excalidraw -->

    <defs>
        <style>
            @font-face {
            font-family: "Virgil";
            src: url("https://unpkg.com/@excalidraw/excalidraw@0.13.0-4d26993/dist/excalidraw-assets/Virgil.woff2");
            }
            @font-face {
            font-family: "Cascadia";
            src: url("https://unpkg.com/@excalidraw/excalidraw@0.13.0-4d26993/dist/excalidraw-assets/Cascadia.woff2");
            }
        </style>
    </defs>
    <rect x="0" y="0" width="979.3333740234375" height="1124.8335571289062" fill="#ffffff"></rect>
    <g stroke-linecap="round" transform="translate(353.00006103515625 10) rotate(0 114.5 34)">
        <path d="M0 0 C0 0, 0 0, 0 0 M0 0 C0 0, 0 0, 0 0 M1.23 23.09 C4.46 16.04, 11.9 12.32, 19.72 -1.79 M-0.08 24.74 C7.97 16.69, 14.62 8.03, 21.11 0.12 M0.63 48.16 C11.26 33.81, 24.96 22.41, 43.06 0.65 M0.78 48.56 C11.46 36.28, 23.96 21.19, 41.73 -0.3 M1.68 71.84 C19.89 49.11, 42.71 25.74, 64.14 1.2 M2.01 70.19 C26.35 42.74, 49.83 14.57, 63.78 -0.39 M24.45 69.36 C37.97 52.5, 56.01 32.62, 86.85 1.2 M23.46 69.45 C38.27 54.05, 51.25 39.88, 85.92 -0.95 M44.29 71.19 C66.17 44.53, 87.25 18.94, 105.52 -2.07 M45.14 70.13 C62.44 49.33, 81.27 27.61, 106.09 0.49 M64.82 70.88 C88.69 44.21, 108.98 20.98, 128.83 1.82 M65.94 70.71 C86.93 44.49, 109.74 20.48, 126.03 0.71 M88.21 71.12 C110.27 46.65, 128.48 20.82, 149 -0.1 M86.48 70.21 C101.07 54.12, 114.6 37.87, 148.18 1.1 M108.37 71.22 C119.52 55.56, 133.66 41.1, 170.44 0.69 M108.02 70.51 C122.75 52.35, 138.13 35.02, 168.88 0.43 M130.81 72.21 C148.02 47.29, 165.21 29.99, 190.88 1.7 M128.95 69.39 C147.07 48.69, 166.4 28.87, 191.32 -0.86 M151.28 71.36 C172.28 45.4, 194.54 21.81, 213.33 -1.43 M151.07 69.75 C168.36 52.18, 184.2 32.45, 211.99 0.33 M172.26 70.58 C189.58 48.57, 207.22 29.83, 230.65 1.79 M172.78 69.96 C194.45 45.82, 215.6 21.06, 231.02 1.38 M193.56 70.87 C203.2 61.66, 207.59 51, 232.99 28.25 M193.3 69.11 C206.08 54.12, 220.55 39.48, 232.24 27.24 M212.88 68.74 C217.73 63.69, 222.95 59.95, 232.88 49.51 M213.88 69.3 C219.37 64.18, 224.06 59.45, 231.9 51.69"
              stroke="#e64980" stroke-width="2" fill="none"></path>
        <path d="M1.02 0.08 C66.47 1.11, 131.68 0.19, 227.88 0.83 M-0.08 -0.25 C90.12 0.01, 178.77 0.6, 228.75 0.06 M227.8 -1.18 C231.18 22.71, 229.96 43.91, 229.03 68.89 M229.23 -0.33 C227.64 18.91, 229.55 38.33, 228.16 68.5 M229.8 68.07 C178.78 69.06, 128.7 67.87, 0.62 68.3 M229.48 67.86 C182.26 68.51, 135.49 69.35, 0.81 68.67 M-1.89 66.92 C1.28 42.84, -1.75 22.23, -1.15 1.46 M0.5 67.8 C0.3 47.41, 0.91 27.42, 0.72 0.9"
              stroke="#000000" stroke-width="4" fill="none"></path>
    </g>
    <g transform="translate(435.50006103515625 31.5) rotate(0 32 12.5)">
        <text x="32" y="18" font-family="Virgil, Segoe UI Emoji" font-size="20px" fill="#000000" text-anchor="middle"
              style="white-space: pre;" direction="ltr">upload
        </text>
    </g>
    <g stroke-linecap="round" transform="translate(10 369.83343505859375) rotate(0 113 41.5)">
        <path d="M0 0 C0 0, 0 0, 0 0 M0 0 C0 0, 0 0, 0 0 M-1.59 25.78 C4.75 18.52, 9.34 11.14, 20.99 0.31 M-0.73 24.07 C5.96 17.9, 12.52 10.48, 21.83 0.47 M-1.01 49.05 C12.61 33.95, 30.7 17.43, 44.5 0.5 M-0.36 49.42 C9.08 39.07, 18.21 27.35, 41.59 -0.16 M-1.5 74.49 C21.76 49.46, 45.33 20.84, 63.61 -0.26 M0.66 73.39 C22 46.62, 44.91 19.34, 64.75 0.07 M5.35 89.73 C36.12 54.76, 69.24 19.94, 85.49 -0.52 M7.78 88.86 C35.95 55.19, 65.96 22.23, 85.91 -0.27 M27.06 88.41 C55.22 57.09, 82.03 27.9, 107.5 1.34 M28.85 89.09 C54.35 60.02, 81.34 30.21, 107.06 0.55 M48.53 88.54 C66.46 71.42, 82.92 50.46, 125.07 0.37 M50.06 88.92 C67.52 69.88, 85.39 49, 126.13 0.47 M69.36 90.66 C95.37 63.47, 119.75 33.49, 148.98 0.42 M69.88 88.75 C101.29 54.41, 130.17 18.1, 147.83 -0.14 M91.97 88.91 C121.46 54.89, 154.64 19.97, 169.87 -0.85 M92.84 88.49 C113.13 67.03, 132.05 43.46, 168.95 0.4 M114.16 87.44 C137.51 60.36, 162.32 32.8, 191.53 -0.61 M112.78 89.78 C141.56 57.69, 168 25.6, 191.22 -0.73 M135.7 90.88 C159.47 64.11, 178.68 36.82, 210.73 -1.6 M135.04 89.3 C152.35 67.92, 170.18 46.36, 211.81 0.24 M154.84 88.74 C183.23 59.19, 213.59 25.03, 228.53 2.04 M155.7 89.05 C179.23 62.83, 204.13 34.4, 230.34 4.67 M178.91 89.85 C193.6 67.78, 210.04 49.92, 230.99 26.24 M177.77 89.64 C188.5 74.66, 202.36 59.28, 230.18 26.92 M196.9 90.84 C206.76 76.62, 214.88 69.12, 230.36 54.46 M198.45 88.54 C204.54 80.69, 211.82 73.46, 229.33 52.51 M217.54 91.03 C220.62 86.23, 223.35 81.36, 230.34 76.45 M218.69 90.06 C222.55 86.67, 224.93 83.74, 230.35 76.77"
              stroke="#fd7e14" stroke-width="2" fill="none"></path>
        <path d="M0.19 0.33 C52.91 -1.52, 103.5 0.96, 225.16 -1.34 M-0.02 -0.37 C86.13 -2.5, 171.58 -1.96, 225.9 -0.05 M225.08 1.69 C226.63 19.86, 224.61 36.01, 227.06 83.15 M226.94 0.17 C225.07 19.2, 224.49 36.31, 225.06 83.75 M225.16 83.48 C163.97 84.96, 101.54 84.35, 0.17 84.38 M226.58 83.27 C154.45 82.38, 82.16 82.78, 0.68 82.25 M1.3 83.62 C-2.4 56.54, -0.32 31.17, -0.97 -0.26 M0.96 83.77 C0.53 49.59, -0.36 18.78, 0.06 -0.96"
              stroke="#000000" stroke-width="4" fill="none"></path>
    </g>
    <g transform="translate(73.5 398.83343505859375) rotate(0 49.5 12.5)">
        <text x="49.5" y="18" font-family="Virgil, Segoe UI Emoji" font-size="20px" fill="#000000" text-anchor="middle"
              style="white-space: pre;" direction="ltr">dsync lock
        </text>
    </g>
    <g stroke-linecap="round" transform="translate(367.33349609375 373.1669616699219) rotate(0 113 41.5)">
        <path d="M0 0 C0 0, 0 0, 0 0 M0 0 C0 0, 0 0, 0 0 M-0.46 22.76 C5.54 19.03, 12.82 11.85, 21.63 1.01 M-0.21 23.57 C5.82 18.94, 10.13 11.34, 22.23 0.02 M0.15 48.28 C14.44 35.2, 28.3 18.99, 44.39 -1.12 M-0.58 48.62 C15.7 29.63, 33.9 10.07, 43.09 -0.47 M0.76 71.67 C15.67 56.06, 28.71 38.57, 61.81 -0.9 M-0.72 72.34 C17.4 54.37, 33.19 33.38, 64.74 0.45 M7.69 88.69 C30.33 63.31, 52.51 35.06, 86.07 -0.69 M6.78 88.62 C33.28 58.84, 59.96 27.92, 85.2 -0.21 M28.25 90.88 C45.46 65.09, 66.96 42.77, 108.29 -1.72 M28.55 89.53 C52.21 63.32, 74.27 37.3, 106.26 -1.05 M48.91 90.12 C69.6 63.7, 90.24 43.92, 126.34 -0.78 M49.45 88.47 C74.07 60.43, 100.23 31.45, 127.13 0.73 M72.45 90.84 C94.1 61.94, 121.54 30.97, 149.9 -0.65 M71.59 90.13 C88.02 66.99, 106.38 46.56, 148.35 -0.45 M94.01 91.25 C108.21 69.6, 126.82 49.65, 168.95 0.97 M91.17 88.29 C110.97 66.15, 131.33 44.78, 170.11 0.13 M113.48 89.89 C138.68 59.49, 161.38 31.48, 190.82 1 M112.79 90.07 C137.48 60.84, 163.3 33.04, 190.16 -0.27 M133.97 90.17 C156.48 61.81, 183.75 34.66, 212.01 -1.66 M134.7 89.11 C152.64 68.71, 171.17 46.47, 211.45 -0.85 M154.23 90.95 C176.32 68.36, 192.14 48.56, 229.3 2.13 M155.08 89.83 C170.83 71.56, 185.67 54.13, 230.12 3.67 M175.11 87.1 C190.88 74.37, 204.98 55.77, 228.36 27.44 M177.36 88.64 C187.52 75.57, 199.84 62.97, 229.93 28.34 M199.96 88.07 C212.92 72.71, 222.25 61.2, 228.8 50.74 M198.45 88.11 C207.1 79.46, 215.24 71.5, 230.14 52.18 M220.21 90.95 C223.77 85.28, 226.61 79.48, 229.48 75.12 M219.33 89.1 C222.58 84.34, 227.7 80.33, 230.51 76.69"
              stroke="#fd7e14" stroke-width="2" fill="none"></path>
        <path d="M-1.47 -0.18 C62.7 -2.55, 128.21 -1.09, 224.93 -1.57 M0.84 -0.32 C54.75 1.52, 110.62 1.53, 225.93 0.08 M227.67 0.35 C224.05 24.4, 227.64 51.98, 226.59 83.46 M225.39 0.6 C225.69 29.43, 226.15 59.4, 226.96 83.29 M224.57 81.47 C155.57 83.8, 88.25 82.97, 1.11 83.24 M225.88 82.7 C178.46 84.68, 129.83 84, -0.29 82.59 M0.13 83 C-2.04 60.33, 1.48 34.71, -1.18 -1.96 M-0.19 83.51 C-0.59 55.05, -0.11 27.38, 0.33 0.96"
              stroke="#000000" stroke-width="4" fill="none"></path>
    </g>
    <g transform="translate(373.33349609375 389.6669616699219) rotate(0 107 25.5)">
        <text x="107" y="17.5" font-family="Virgil, Segoe UI Emoji" font-size="20px" fill="#000000" text-anchor="middle"
              style="white-space: pre;" direction="ltr">namespace read write
        </text>
        <text x="107" y="43" font-family="Virgil, Segoe UI Emoji" font-size="20px" fill="#000000" text-anchor="middle"
              style="white-space: pre;" direction="ltr">lock
        </text>
    </g>
    <g stroke-linecap="round" transform="translate(740.666748046875 375.50018310546875) rotate(0 113 41.5)">
        <path d="M0 0 C0 0, 0 0, 0 0 M0 0 C0 0, 0 0, 0 0 M1.97 23.5 C5.89 18.05, 8.33 12.82, 23.23 -0.63 M-0.44 24.04 C4.39 17.46, 10.46 12.07, 21.82 0.16 M-1.97 50.62 C15.75 30.98, 29.29 16.84, 40.8 1.6 M0.75 49.76 C11.84 35.67, 20.9 23.58, 41.81 0.05 M-0.02 75 C17.2 55.13, 29.93 39.72, 64 -0.68 M1 72.16 C21.11 48.04, 42.97 24.68, 63.57 0.48 M6.9 89.74 C30.37 64.28, 50.74 36.42, 83.24 -0.14 M6.55 89.06 C34.48 58.06, 60.31 28.2, 85.69 -0.8 M27.07 88.9 C49.46 63.89, 68.85 43.56, 107.17 -0.28 M28.47 89.64 C45.48 70.14, 62.83 51.33, 105.61 -0.84 M50.18 87.84 C68.03 73.05, 82.85 52.02, 128.63 -0.28 M49.66 88.69 C67.98 69.86, 84.22 50.07, 127.18 0.54 M70.71 87.39 C91.59 63.08, 117.72 37.08, 147.8 -1.56 M69.76 89.64 C92.74 63.1, 114.22 38.86, 148.5 0.01 M94.01 90.9 C117.32 60.66, 143.72 26.37, 170.83 -0.8 M91.95 89.4 C107.33 72.4, 123.49 54.55, 170.25 0.54 M114.88 90.71 C133.82 67.75, 151.62 44.49, 189.06 -0.56 M113.19 89.68 C127.61 70.97, 143.55 53.85, 191.45 0.66 M134.12 88.52 C157.59 63.7, 179.81 39.64, 212.87 1.94 M135.38 89.25 C160.69 60.31, 186.28 31.02, 211.11 0.49 M157.13 89.89 C178.15 59.91, 204.16 31.82, 229.02 3.04 M155.66 89.24 C170.68 71.66, 186.91 53.36, 230.09 3.84 M178.42 88.62 C190.73 74.48, 201.51 59.94, 231.3 28.1 M177.57 89.4 C189.37 74.77, 204.27 58.52, 229.51 28.46 M200.2 89.26 C206.31 78.75, 220.13 65.37, 231.77 50.91 M199.28 89.39 C209.18 75.77, 221.87 62.14, 230.58 53.35 M220.08 88.44 C223.06 87.46, 224.48 81.78, 231.75 78.2 M218.28 89.79 C222 85.92, 225.97 82.42, 229.64 76.41 M-0.34 82.7 C-0.34 82.7, -0.34 82.7, -0.34 82.7 M-0.34 82.7 C-0.34 82.7, -0.34 82.7, -0.34 82.7 M26.3 82.09 C16.53 76.87, 6.87 65.87, 1.03 61.18 M23.52 82.96 C18.03 77.24, 12.29 73.06, -0.6 61.71 M46.64 82.93 C37 72.61, 23.14 60.35, 1.95 40.21 M49.39 83.78 C36.05 73.38, 25.46 63.22, 0.19 41.39 M72.44 82.92 C48.91 62.16, 26.35 39.71, 1.74 20.29 M73.88 82.93 C48.91 60.9, 23.35 41.17, -0.25 19.15 M96.41 84.72 C68.48 59.04, 39.1 31.71, 0.52 0.56 M98.08 83.11 C70.04 57.93, 41.23 34.1, 0.19 -1.21 M123.14 80.72 C99.27 62.25, 72.08 43.69, 22.98 -1.12 M121.49 81.91 C94.79 59.98, 69.38 37.76, 24.65 -1.4 M145.43 81.55 C110.75 52.34, 75.8 21.39, 51.8 -2.1 M146 83.06 C126.21 65.7, 106.95 46.85, 49.36 -0.83 M170.57 82.47 C144.57 57.25, 114.52 31.88, 72.61 -2.76 M170.84 82.76 C150.32 65.76, 130.64 47.02, 74.23 -1.57 M196.19 82.49 C160.67 54.47, 126.35 26.79, 100.44 -1.87 M196.09 83.58 C169.01 60.02, 143 37.05, 98 0.21 M220.8 83.49 C193.96 60.65, 167.63 40.81, 124.26 0.66 M219.83 83.44 C185.55 54.46, 154.21 24.46, 122.4 -1.76 M233.8 72.77 C202.72 50.61, 174.43 21.49, 148.81 -3.22 M233.9 75.02 C214.19 59.48, 195.71 42.55, 146.64 -0.97 M232.11 53.95 C214.38 38.44, 196.91 25, 170.88 -1.22 M233.09 52.47 C210.25 32.53, 187.77 12.76, 171.39 -0.8 M233.13 29.88 C224.18 21.69, 213.08 13.37, 197.67 -2.26 M233.79 31.21 C220.42 19.97, 209.4 10.24, 195.72 -0.23 M233.94 10.25 C231.73 7.98, 227.32 4.58, 222.27 -1.33 M233.9 11.18 C231.41 7.54, 227.99 5.53, 220.61 -0.08"
              stroke="#be4bdb" stroke-width="2" fill="none"></path>
        <path d="M1.05 -0.62 C69.57 1.31, 142.49 2.95, 226.2 0.31 M0.3 -0.4 C79.51 1.92, 160.74 1.1, 225.52 0.83 M226.83 0.27 C225.45 27.01, 227.75 53.33, 226.67 84.87 M225.17 -0.46 C226.48 20.28, 226.45 42.49, 225.42 83.57 M225.99 83.53 C164.49 83, 105.04 81.74, -0.91 81.31 M225.46 82.26 C165.45 85.48, 106.63 84.32, -0.48 83.83 M-1.65 83.72 C-0.84 52.37, -0.01 20.82, -1.41 1.03 M0.14 82.81 C-1.27 58.96, -0.15 35.68, 0.06 0.16"
              stroke="#000000" stroke-width="4" fill="none"></path>
    </g>
    <g transform="translate(750.666748046875 410.75018310546875) rotate(0 103 12.5)">
        <text x="103" y="18" font-family="Virgil, Segoe UI Emoji" font-size="20px" fill="#000000" text-anchor="middle"
              style="white-space: pre;" direction="ltr">compute ec and slice
        </text>
    </g>
    <g stroke-linecap="round" transform="translate(371.666748046875 680.8336181640625) rotate(0 113 41.5)">
        <path d="M0 0 C0 0, 0 0, 0 0 M0 0 C0 0, 0 0, 0 0 M-1.04 24.31 C6.12 17.04, 11.8 10.54, 20.16 -1.62 M-0.42 23.45 C9.29 14.75, 17.36 5.56, 21.4 -0.86 M0.27 47.16 C11.27 32.41, 25.27 20.52, 42.94 -0.22 M-0.78 48.81 C11.43 36.56, 21.56 22.86, 42.65 0.58 M-1.51 73.13 C17.1 55.83, 31.19 35.53, 62.47 -1.96 M-0.68 73.66 C20.19 48.59, 40.77 24.64, 63.24 -0.77 M8.78 90.08 C33.16 60.49, 59.27 27.08, 83.15 1.52 M7.53 89.7 C32.53 60.71, 57.32 31.86, 84.73 -0.44 M27.67 91.27 C51.62 63.08, 73.78 36.28, 104.7 1.32 M27.53 88.97 C43.58 72.01, 59.09 54.11, 107.28 -1.33 M51.22 87.92 C78.24 55.53, 109.66 16.57, 125.94 -1.36 M50.03 89.05 C72.91 64.63, 95.28 37.09, 127.27 1.21 M72.17 89.44 C99.86 53.22, 128.25 19.05, 149.9 -1.7 M69.83 88.97 C92.91 64.6, 115.97 37.78, 147.23 -0.37 M92.01 88.64 C115.78 65.39, 137.45 40.21, 168.27 -0.2 M92.61 89.08 C122.59 54.18, 151.93 21.1, 170.14 0.89 M113.33 88.27 C141.98 56.36, 169 22.76, 190.47 -1.06 M113.27 89.21 C134.87 64.33, 157.63 37.88, 191.36 0.68 M134.34 89.61 C162.51 56.68, 191.98 21.71, 211.47 -0.94 M135.16 89.94 C160.87 57.84, 189.26 27.35, 212.28 0.4 M157.25 90.97 C184.48 58.09, 212.33 24.11, 230.88 3.42 M156.39 88.79 C185.59 56.68, 214.9 21.81, 230.27 4.11 M178.75 88.33 C196.24 68.08, 218.32 43.51, 229.6 26.82 M177.13 89.45 C189.33 74.88, 200.42 60.88, 231.13 27.87 M198.41 89.87 C211.44 75.56, 219.41 64.52, 230.81 51.06 M197.85 87.99 C205.34 80.76, 213.19 71.92, 228.98 51.85 M220.25 89.3 C221.76 85.14, 226.9 78.51, 229.36 77.73 M218.09 88.95 C221.06 86.29, 223.11 84.19, 229.46 76.88"
              stroke="#15aabf" stroke-width="2" fill="none"></path>
        <path d="M0.66 -0.22 C67.12 0.38, 133.74 0.69, 225.48 1.59 M0.68 0.6 C53.08 0.79, 107.95 1.84, 225.99 -0.24 M225.76 -0.02 C224.91 16.64, 227.33 35.7, 226.86 82.14 M225.16 0.2 C224.92 26.13, 226 52.19, 225.48 83.55 M224.6 81.85 C136.81 83.17, 48.46 83.2, -0.13 82.33 M226.71 83.38 C148.02 83.69, 69.87 82.52, -0.32 82.66 M-0.58 81.36 C-0.04 52.99, -0.32 17.92, 0.63 1.08 M-0.61 83.02 C-0.08 64.52, 0.26 45.32, 0.22 0.61"
              stroke="#000000" stroke-width="4" fill="none"></path>
    </g>
    <g transform="translate(382.666748046875 697.3336181640625) rotate(0 102 25.5)">
        <text x="102" y="17.5" font-family="Virgil, Segoe UI Emoji" font-size="20px" fill="#000000" text-anchor="middle"
              style="white-space: pre;" direction="ltr">slice buff into temp
        </text>
        <text x="102" y="43" font-family="Virgil, Segoe UI Emoji" font-size="20px" fill="#000000" text-anchor="middle"
              style="white-space: pre;" direction="ltr">file
        </text>
    </g>
    <g stroke-linecap="round" transform="translate(20.00030517578125 672.8336791992188) rotate(0 113 41.5)">
        <path d="M0 0 C0 0, 0 0, 0 0 M0 0 C0 0, 0 0, 0 0 M-1.35 25.24 C8.39 17.12, 13.94 8.08, 22.56 -1.19 M0.56 23.33 C6.66 14.7, 15.39 7.09, 21.63 -1 M1.42 47.11 C11.47 35.09, 27.09 20.86, 41.62 -1.05 M-0.09 49.56 C14.79 33.15, 29.39 16.39, 42.14 0.43 M0.63 72.49 C23.26 48.62, 47.03 22.31, 62.17 -1.89 M-0.41 73.59 C18.13 52.75, 37.41 32.03, 63.34 -0.33 M8.09 88.8 C36.79 54.64, 70.18 20.18, 84.43 0 M7.87 89.62 C37.39 54.55, 65.6 22.14, 84.3 -0.71 M28.68 88.18 C58.27 52.6, 88.56 19.43, 105.66 0.45 M27.71 90.07 C45.32 71.6, 63 51.93, 106.4 -0.65 M48.48 90.04 C73.2 63.34, 97.39 33.89, 125.91 0.64 M48.76 89.71 C67.32 68.58, 83.91 48.59, 127.84 1.3 M69.96 91.3 C99.79 56.49, 129.9 19.83, 147.09 -1.3 M71.42 88.63 C86.09 71.38, 102.29 53.76, 148.66 1.22 M93.99 89.57 C109.03 69.02, 127.55 49.84, 167.5 -1.21 M92.62 89.05 C116.47 59.53, 142.36 31.69, 169.99 -0.45 M114.27 87.73 C143.43 58.8, 171.91 22.27, 188.83 -1.4 M113.15 88.54 C133.54 66.13, 154.17 41.84, 191.03 0.32 M133.79 88.5 C160.07 57.41, 188.98 24.83, 210.02 -1.24 M133.95 88.27 C153.7 69.26, 170.67 48.48, 211.6 -0.91 M155.23 90.95 C172.48 71.04, 190.39 49.33, 228.34 5.08 M155.35 88.17 C175.98 65.73, 196.59 42.8, 229.22 2.95 M177.42 89.12 C192.21 69.39, 208.15 51.27, 230.01 26.23 M177.37 89.19 C193.39 68.64, 211.17 49.49, 230.47 28.8 M197.78 88.55 C205.66 78.94, 212.69 70.21, 229.27 51.22 M199.02 88.52 C207.04 78.75, 215.66 68.63, 229.91 52.52 M219.91 89.62 C223.82 84.11, 227.99 82.47, 231.32 76.37 M219.75 90.4 C221.95 86.3, 226.12 81.46, 230.15 76.55"
              stroke="#15aabf" stroke-width="2" fill="none"></path>
        <path d="M1.12 -1.28 C77.96 -2.66, 156.93 -0.42, 225.13 -1.16 M-0.67 -0.04 C47.84 -1.89, 95.61 -1.12, 226.31 -0.12 M226.87 1.36 C224.41 28.47, 225.01 60.36, 225.65 83.6 M226.4 -0.04 C225.07 28.68, 225 57.07, 225.41 82.79 M227.38 83.77 C146.35 83.41, 65.09 85.33, -1.14 83.26 M226.38 82.24 C169.22 80.71, 112.48 80.95, 0.56 82.7 M-1.41 83.72 C-0.2 63.67, -1.26 47.78, 1.73 -0.43 M-0.68 83.26 C0.59 62.74, 0.05 41.64, 0.11 0.06"
              stroke="#000000" stroke-width="4" fill="none"></path>
    </g>
    <g transform="translate(47.50030517578125 701.8336791992188) rotate(0 85.5 12.5)">
        <text x="85.5" y="18" font-family="Virgil, Segoe UI Emoji" font-size="20px" fill="#000000" text-anchor="middle"
              style="white-space: pre;" direction="ltr">async rename file
        </text>
    </g>
    <g stroke-linecap="round" transform="translate(380.666748046875 1031.8335571289062) rotate(0 113 41.5)">
        <path d="M0 0 C0 0, 0 0, 0 0 M0 0 C0 0, 0 0, 0 0 M0.83 22.26 C7.97 13.15, 16.81 4.27, 22.25 0.9 M-0.4 24.79 C6.24 17.23, 12.51 11.04, 21.02 0.39 M-1.5 47.03 C13.42 35.85, 24.77 20.87, 42.9 -0.75 M-0.47 49.56 C10.9 35.64, 22.15 22.72, 41.87 0.79 M0.06 71.55 C20.48 47.62, 41.6 24.24, 64.18 -1.58 M-0.05 73.82 C19.73 49.55, 38.71 27.56, 64.6 -0.97 M8.9 90.91 C31.29 58.77, 55.52 33.22, 86.41 1.29 M7.22 90.04 C25.02 70.13, 43.28 49.73, 84.12 0.22 M29.96 88.45 C55.53 59.37, 80.85 27.15, 107.41 -1.64 M28.15 89.18 C56.01 58.54, 82.56 27.51, 105.38 -0.8 M49.91 90.23 C67.66 66.12, 89.85 45.1, 128.31 0.98 M49.96 88.81 C66.45 69.91, 82.78 51.21, 125.94 0.46 M72.31 87.34 C97.14 56.3, 124.98 28.29, 148.61 0.96 M70.37 90.05 C102.47 55.5, 131.31 19.03, 148.89 -0.63 M91.59 91.07 C110.84 65.89, 127.75 47.8, 168.67 -0.39 M91.42 88.42 C109.77 69.9, 126.79 50.24, 170.24 -0.07 M111.54 89.49 C137.58 61.36, 164.69 34.11, 188.77 -0.68 M112.74 89.02 C143.58 53.82, 172.41 19.26, 189.73 -0.06 M133.72 89.95 C156.22 66.45, 175.3 41.25, 210.93 0.88 M133.84 88.79 C159.26 60.4, 185.64 30.83, 211.55 0.99 M155.89 87.72 C180.19 62.97, 204.57 33.42, 227.99 5.77 M155.39 89.73 C181.46 60.35, 207.5 30.48, 229.3 4.47 M176.45 88.51 C193.05 70.39, 210.5 51.19, 230.25 29.83 M177.49 89.07 C190.74 73.54, 203.15 58.3, 229.38 27.83 M196.92 89.03 C204.38 80.53, 213.23 73.23, 228.53 52.74 M199 88.54 C206.66 78.86, 214.68 71.23, 229.95 51.72 M217.82 88.52 C222.14 86.17, 223.22 83.99, 229.45 76.91 M219.07 89.34 C222.02 87.35, 222.94 84.71, 230.83 77.47"
              stroke="#e64980" stroke-width="2" fill="none"></path>
        <path d="M-1.36 1.13 C85.64 0.24, 171.87 0.33, 224.48 -1.2 M-0.6 -0.7 C70.62 -1.27, 140.51 -1.27, 226.06 -0.48 M225.82 -1.62 C225.84 21.48, 224.17 41.28, 226.41 81.86 M226.28 0.95 C225.48 17.42, 226.81 36.3, 225.82 82.54 M225.54 81.74 C164.39 83.37, 103.46 84.08, -0.68 82.41 M226.09 82.85 C147.8 83.97, 69.15 85.27, 0.01 83.56 M1.48 82.53 C-0.69 66.17, -1.21 47.49, 1.87 -0.56 M0.09 82.74 C-0.76 52.33, -0.61 21.53, -0.23 0.69"
              stroke="#000000" stroke-width="4" fill="none"></path>
    </g>
    <g transform="translate(476.166748046875 1060.8335571289062) rotate(0 17.5 12.5)">
        <text x="17.5" y="18" font-family="Virgil, Segoe UI Emoji" font-size="20px" fill="#000000" text-anchor="middle"
              style="white-space: pre;" direction="ltr">ack
        </text>
    </g>
    <g stroke-linecap="round">
        <g transform="translate(465.3312228600564 84.33331298828125) rotate(0 -154.44600068721314 141.5189000900835)">
            <path d="M0.82 -0.81 C-50.82 46.67, -257.3 236.45, -309.13 283.85 M-0.21 1.38 C-52.01 48.59, -257.9 234.72, -309.71 281.99"
                  stroke="#000000" stroke-width="4" fill="none"></path>
        </g>
        <g transform="translate(465.3312228600564 84.33331298828125) rotate(0 -154.44600068721314 141.5189000900835)">
            <path d="M-297.08 256.6 C-300.16 264.57, -305.65 276.34, -310.75 281.89 M-296.11 255.92 C-299.89 264.66, -305.06 273.79, -310.62 281.53"
                  stroke="#000000" stroke-width="4" fill="none"></path>
        </g>
        <g transform="translate(465.3312228600564 84.33331298828125) rotate(0 -154.44600068721314 141.5189000900835)">
            <path d="M-283.29 271.79 C-291.22 274.37, -301.68 280.66, -310.75 281.89 M-282.32 271.12 C-290.85 274.6, -300.81 278.45, -310.62 281.53"
                  stroke="#000000" stroke-width="4" fill="none"></path>
        </g>
    </g>
    <g stroke-linecap="round">
        <g transform="translate(244.33343505859375 403.96019502902413) rotate(0 60.007149570807826 2.1078316028696804)">
            <path d="M-0.52 0.11 C19.5 0.95, 100.55 4.22, 120.53 5.09 M1.41 -0.87 C21.28 -0.37, 100.38 2.65, 119.86 3.37"
                  stroke="#000000" stroke-width="4" fill="none"></path>
        </g>
        <g transform="translate(244.33343505859375 403.96019502902413) rotate(0 60.007149570807826 2.1078316028696804)">
            <path d="M91.5 13.45 C102.2 8.58, 112.14 7.85, 118.3 4.88 M91.04 13.32 C100.54 10.18, 109.86 7.43, 120.63 2.41"
                  stroke="#000000" stroke-width="4" fill="none"></path>
        </g>
        <g transform="translate(244.33343505859375 403.96019502902413) rotate(0 60.007149570807826 2.1078316028696804)">
            <path d="M92.27 -7.05 C102.72 -5.03, 112.4 1.14, 118.3 4.88 M91.81 -7.18 C101 -3.9, 110.07 -0.22, 120.63 2.41"
                  stroke="#000000" stroke-width="4" fill="none"></path>
        </g>
    </g>
    <g stroke-linecap="round">
        <g transform="translate(599.666748046875 407.44135072887525) rotate(0 66.50532507381399 0.22156403031334548)">
            <path d="M1.08 -0.2 C23.31 0.11, 110.89 0.47, 132.83 0.72 M0.18 -1.35 C22.37 -0.82, 110.29 1.15, 132.32 1.79"
                  stroke="#000000" stroke-width="4" fill="none"></path>
        </g>
        <g transform="translate(599.666748046875 407.44135072887525) rotate(0 66.50532507381399 0.22156403031334548)">
            <path d="M103.55 12.72 C109.71 9.87, 117.96 6.3, 132.05 0.28 M104.21 10.55 C110.48 9.28, 118.36 7.49, 132.04 0.97"
                  stroke="#000000" stroke-width="4" fill="none"></path>
        </g>
        <g transform="translate(599.666748046875 407.44135072887525) rotate(0 66.50532507381399 0.22156403031334548)">
            <path d="M104.06 -7.8 C109.91 -5.42, 118.03 -3.77, 132.05 0.28 M104.72 -9.97 C110.77 -6.14, 118.52 -2.83, 132.04 0.97"
                  stroke="#000000" stroke-width="4" fill="none"></path>
        </g>
    </g>
    <g stroke-linecap="round">
        <g transform="translate(366.33349609375 719.5019417317885) rotate(0 -51.27667810264978 -1.2867543986706664)">
            <path d="M-1.07 -0.5 C-17.98 -0.61, -85.11 -0.41, -101.89 -0.33 M0.57 -1.81 C-16.51 -2.31, -85.91 -2.21, -103.12 -2.24"
                  stroke="#000000" stroke-width="4" fill="none"></path>
        </g>
        <g transform="translate(366.33349609375 719.5019417317885) rotate(0 -51.27667810264978 -1.2867543986706664)">
            <path d="M-75.77 -13.41 C-81.68 -10.68, -88.63 -6.67, -104.52 -2.77 M-74.92 -11.59 C-83.99 -8.21, -95.17 -6.14, -103.2 -3.21"
                  stroke="#000000" stroke-width="4" fill="none"></path>
        </g>
        <g transform="translate(366.33349609375 719.5019417317885) rotate(0 -51.27667810264978 -1.2867543986706664)">
            <path d="M-75.78 7.11 C-81.73 4.41, -88.68 2.99, -104.52 -2.77 M-74.93 8.93 C-83.98 5.29, -95.16 0.34, -103.2 -3.21"
                  stroke="#000000" stroke-width="4" fill="none"></path>
        </g>
    </g>
    <g stroke-linecap="round">
        <g transform="translate(188.62651571381025 767.33349609375) rotate(0 128.02459621777018 128.41254530182107)">
            <path d="M-0.98 1.08 C41.72 43.75, 213.92 214.01, 257.03 256.22 M0.7 0.61 C43.22 42.92, 213.5 212.15, 256.3 254.56"
                  stroke="#000000" stroke-width="4" fill="none"></path>
        </g>
        <g transform="translate(188.62651571381025 767.33349609375) rotate(0 128.02459621777018 128.41254530182107)">
            <path d="M230.87 242.66 C240.53 248.6, 247.3 253.28, 254.61 253.02 M229.16 242.01 C235.82 245.11, 242.5 247.94, 256.33 254.24"
                  stroke="#000000" stroke-width="4" fill="none"></path>
        </g>
        <g transform="translate(188.62651571381025 767.33349609375) rotate(0 128.02459621777018 128.41254530182107)">
            <path d="M245.33 228.09 C249.72 239.24, 251.2 249.26, 254.61 253.02 M243.61 227.44 C246.42 234.4, 249.31 241.05, 256.33 254.24"
                  stroke="#000000" stroke-width="4" fill="none"></path>
        </g>
    </g>
    <g stroke-linecap="round" transform="translate(743.3333740234375 681.4999389648438) rotate(0 113 41.5)">
        <path d="M0 0 C0 0, 0 0, 0 0 M0 0 C0 0, 0 0, 0 0 M1.25 23.99 C4.76 17.48, 8.28 14.04, 22.24 0.29 M0.49 24.99 C5.65 18.25, 10.46 11.49, 20.63 -0.88 M-0.68 50.52 C15.15 29.87, 31.35 10.86, 42.04 0.31 M-0.05 49.61 C8.71 38.46, 17.75 28.12, 43.03 -0.99 M1.52 71.38 C24.94 44.87, 46.84 18.9, 61.9 -1.65 M-0.62 72.74 C14.46 57.5, 26.66 40.25, 64.08 -0.2 M8.19 88.78 C26.5 65.06, 48.48 42.42, 85.03 1.53 M7.94 90.29 C25.74 67.58, 45.03 44.82, 85.01 -1.01 M29.68 87.76 C56.55 58.42, 85.43 25.07, 106.59 1.07 M27.47 88.84 C53.37 59.02, 80.61 30.27, 106.37 -0.97 M48.48 88.65 C80.72 53.52, 108.8 20.84, 125.48 -0.33 M49.59 88.81 C70.68 63.76, 93.61 37.96, 127.61 0.22 M72.41 87.34 C101.2 54.52, 129.6 21.7, 149.4 1.01 M70.62 88.4 C96.9 59.88, 122.23 30.48, 148.98 0.99 M90.64 88.54 C122.35 57.41, 149.09 24.76, 171.37 0.85 M92.51 89.41 C109.46 69.88, 127.51 49.24, 169.91 0.58 M114.09 88.22 C133.72 66.62, 151.37 44.15, 190.76 0.6 M113.09 89.48 C134.78 65.7, 153.24 42.38, 190.89 -0.72 M133.9 90.28 C159.14 62.51, 179.31 38.61, 213.08 -1.4 M135.34 89.27 C151.55 68.84, 168.5 50.24, 211.11 -0.62 M153.85 89.05 C184.39 56.19, 214.95 21.68, 229.16 2.48 M155.69 88.7 C184.05 57.51, 211.87 23.86, 230.44 4.18 M176.82 89.86 C196.34 71.23, 212.78 50.73, 231.69 28.78 M177.28 88.2 C188.24 75.24, 200.47 61.43, 229.86 27.27 M197.2 87.64 C206.08 79.26, 215.6 69.72, 228.32 54.44 M198.27 88.86 C206.94 80.13, 215.1 70.04, 229.38 52.66 M218.71 88.4 C220.62 84.78, 226.72 82.49, 230.72 77.56 M218.52 90.33 C221.58 86.95, 224.19 84.45, 229.23 77.28"
              stroke="#82c91e" stroke-width="2" fill="none"></path>
        <path d="M1.19 -1.37 C49.31 -2.17, 100.42 -2.42, 225.27 0.37 M0.83 -0.6 C55.87 0.61, 110.74 -0.01, 226.18 0.41 M227.1 1.72 C227.22 18.36, 225.01 38.49, 227.47 82.53 M226.01 -0.63 C225.43 24.81, 225.6 51.04, 225.54 82.88 M225.19 82.53 C166.49 83.63, 107.32 81.75, -0.07 84.28 M226.58 83.66 C161.3 82.64, 95.88 83.72, 0.61 83.61 M0.15 84.7 C1.54 64.53, 0.66 48.81, -1.55 1.18 M0.64 83.76 C-0.19 54.04, -0.11 23.54, -0.23 0.17"
              stroke="#000000" stroke-width="4" fill="none"></path>
    </g>
    <g transform="translate(774.8333740234375 710.4999389648438) rotate(0 81.5 12.5)">
        <text x="81.5" y="18" font-family="Virgil, Segoe UI Emoji" font-size="20px" fill="#000000" text-anchor="middle"
              style="white-space: pre;" direction="ltr">meta and degist
        </text>
    </g>
    <g stroke-linecap="round">
        <g transform="translate(859.9675858836922 469) rotate(0 3.562904605777021 101.27748931502924)">
            <path d="M-0.45 -1.03 C0.61 32.56, 6.1 168.31, 7.58 202.26 M1.51 1.04 C2.33 34.73, 5.63 169.77, 6.75 203.59"
                  stroke="#000000" stroke-width="4" fill="none"></path>
        </g>
        <g transform="translate(859.9675858836922 469) rotate(0 3.562904605777021 101.27748931502924)">
            <path d="M-6.02 176.08 C-0.39 188.69, 4.69 199.83, 5.68 204.76 M-4.26 175.98 C-0.54 183.94, 2.8 192.18, 7.43 204.41"
                  stroke="#000000" stroke-width="4" fill="none"></path>
        </g>
        <g transform="translate(859.9675858836922 469) rotate(0 3.562904605777021 101.27748931502924)">
            <path d="M14.49 175.5 C11.93 188.27, 8.81 199.64, 5.68 204.76 M16.25 175.4 C13.62 183.7, 10.59 192.12, 7.43 204.41"
                  stroke="#000000" stroke-width="4" fill="none"></path>
        </g>
    </g>
    <g stroke-linecap="round">
        <g transform="translate(737.0001220703125 721.9694537716961) rotate(0 -69.3142847200669 0.8519195636323111)">
            <path d="M-0.67 -0.76 C-23.87 -0.26, -115.64 1.86, -138.57 2.47 M1.18 1.45 C-22.28 1.62, -116.44 0.57, -139.81 0.48"
                  stroke="#000000" stroke-width="4" fill="none"></path>
        </g>
        <g transform="translate(737.0001220703125 721.9694537716961) rotate(0 -69.3142847200669 0.8519195636323111)">
            <path d="M-112.81 -10.5 C-121.13 -6.5, -130.4 -4.11, -138.06 -0.17 M-111.6 -9.04 C-121.53 -5.42, -132.88 -2.21, -139.84 0.37"
                  stroke="#000000" stroke-width="4" fill="none"></path>
        </g>
        <g transform="translate(737.0001220703125 721.9694537716961) rotate(0 -69.3142847200669 0.8519195636323111)">
            <path d="M-112.97 10.02 C-121.14 6.78, -130.35 1.93, -138.06 -0.17 M-111.76 11.48 C-121.66 7.15, -132.94 2.41, -139.84 0.37"
                  stroke="#000000" stroke-width="4" fill="none"></path>
        </g>
    </g>
</svg>